<svg id="Capa_1" data-name="Capa 1" xmlns="http://www.w3.org/2000/svg" viewBox="0 0 2122 2122"><defs><style>.cls-1{fill:#fff;}.cls-2{fill:#adb5da;}.cls-3{fill:#560832;}.cls-4{fill:#141d35;}.cls-5{fill:#e89971;}.cls-6{fill:#112256;}.cls-7{fill:#f4ab82;}.cls-8{fill:#e48e6e;}.cls-9{fill:#1d2532;}.cls-10{fill:#644699;}.cls-11{fill:#151c28;}.cls-12{fill:#203571;}.cls-13{fill:#f4a67a;}.cls-14{fill:#ea926d;}.cls-15{fill:#40220f;}.cls-16{isolation:isolate;}.cls-17{fill:#0093cb;}.cls-18{fill:#45ade3;}.cls-19{fill:#8dbfe8;}.cls-20{fill:#85254c;}.cls-21{fill:#a93d6d;}.cls-22{fill:#cd4677;}.cls-23{fill:#18151a;}.cls-24{fill:#003f75;}.cls-25{fill:#004696;}.cls-26{fill:#902350;}.cls-27{fill:#290d00;}.cls-28{fill:#3d4577;}.cls-29{fill:#424287;}.cls-30{fill:#5556a3;}.cls-31{fill:#6270b4;}.cls-32{fill:#003770;}.cls-33{fill:#0080ab;}.cls-34{fill:#080006;}.cls-35{fill:#254b8c;}.cls-36{fill:#fdda77;}.cls-37{fill:#441500;}.cls-38{fill:#004b8d;}.cls-39{fill:#005ca3;}.cls-40{fill:#056cae;}.cls-41{fill:#53102e;}.cls-42{fill:#003f8a;}.cls-43{fill:#004ba0;}.cls-44{fill:#f5bf8f;}.cls-45{fill:#380804;}.cls-46{fill:#f7bf90;}.cls-47{fill:#e4a983;}.cls-48{fill:#efefef;}.cls-49{fill:#84c585;}.cls-50{fill:#ef8fb7;}.cls-51{fill:#a7caeb;}.cls-52{fill:#b4e0f7;}.cls-53,.cls-54{fill:none;stroke:#71a1d6;stroke-miterlimit:10;}.cls-53{stroke-width:12.47px;}.cls-54{stroke-width:13.46px;}</style></defs><rect class="cls-1" width="2121.32" height="2121.32"/><path class="cls-2" d="M1231.47,1222l-294.75-124L706.78,1253.1l122.09,51.37a52.74,52.74,0,0,1-8.23,5.37,67.41,67.41,0,0,1-15.06,4.38c-10.27,1.9-22.87,1.58-30.19,6.52-11.43,7.72-2.43,21.73,20.08,31.77l2,.87c24,10.07,52.93,11.82,64.7,3.87,9.56-6.45,2.21-16.7,7.91-24.19a58.28,58.28,0,0,1,9.53-7.24l121.94,51.31,95.14-64.19c-.39-.19-.8-.38-1.22-.56a113.15,113.15,0,0,0-12.53-4.59c-14.19-3.12-33.37.66-45.63-4.5-15-6.68-12-21.85,6.53-34.33,18.69-12.61,46.07-17.69,61.16-11.34,9.36,4.17,9,10.74,12.63,16.13a27.7,27.7,0,0,0,8.43,8c.45.28,2.15,1.13,4.3,2.09,1.8.81,3.92,1.68,5.9,2.35Z"/><path class="cls-2" d="M918.62,1657.44c-7.43-5-20.25-4.7-30.68-6.62a68.22,68.22,0,0,1-15.32-4.47,53,53,0,0,1-8.36-5.44l124.09-52.22-96.69-65.24c.39-.19.81-.39,1.25-.57a112.73,112.73,0,0,1,12.72-4.67c14.41-3.17,33.91.68,46.88-4.78,14.76-6.58,11.65-22-7.15-34.68-19-12.82-46.83-18-62.62-11.33-9,4-8.69,10.72-12.37,16.19a28.33,28.33,0,0,1-8.58,8.19c-.45.28-2.2,1.16-4.4,2.14-1.83.82-4,1.69-5.95,2.37L754.63,1431,455,1557.05l233.72,157.7,124-52.15a59.92,59.92,0,0,1,9.68,7.36c5.79,7.62-1.68,18,8,24.59,12,8.07,41.41,6.3,65.76-3.94l2-.88C921.09,1679.53,930.25,1665.29,918.62,1657.44Z"/><path class="cls-2" d="M1150.35,1363.39l123.94-52.15a58.87,58.87,0,0,1,9.69,7.35c5.8,7.63-1.68,18,8,24.6,12,8.07,41.4,6.3,65.76-3.94l2-.87c22.88-10.21,32.06-24.46,20.42-32.31-7.43-5-20.25-4.69-30.69-6.62a68.44,68.44,0,0,1-15.31-4.46,54.46,54.46,0,0,1-8.36-5.45l124.09-52.21L1683.65,1395,1384.06,1521.1l-96.69-65.25c.38-.19.79-.37,1.2-.55a116,116,0,0,1,12.76-4.68c14.42-3.17,33.93.68,46.39-4.57,15.26-6.8,12.15-22.21-6.64-34.89-19-12.82-46.83-18-62.16-11.53-9.52,4.24-9.15,10.91-12.83,16.38a28.35,28.35,0,0,1-8.58,8.2c-.46.27-2.2,1.15-4.41,2.13-1.82.82-4,1.7-5.94,2.37Z"/><path class="cls-2" d="M1549.58,1705.88l-121.95-51.31a58.18,58.18,0,0,0-9.52,7.23c-5.7,7.51,1.65,17.75-7.91,24.2-11.78,7.94-40.74,6.21-64.7-3.88l-2-.86c-22.51-10-31.52-24-20.09-31.77,7.32-4.94,19.93-4.62,30.19-6.52a66.67,66.67,0,0,0,15.07-4.39,53.48,53.48,0,0,0,8.22-5.36l-122.08-51.37-95.24,64.27c-2-.67-4.09-1.55-5.89-2.35-2.15-1-3.85-1.81-4.29-2.09a27.65,27.65,0,0,1-8.44-8.06c-3.63-5.39-3.27-11.95-12.17-15.92-15.55-6.55-42.92-1.47-61.62,11.14-18.48,12.48-21.54,27.65-7,34.12,12.76,5.38,31.94,1.58,46.12,4.71a111.84,111.84,0,0,1,12.51,4.58l1.23.57L1024.88,1737l294.76,124Z"/><path class="cls-2" d="M856.18,1198.56c0,41.37-75.38,74.91-168.36,74.91s-168.36-33.54-168.36-74.91,75.38-74.91,168.36-74.91S856.18,1157.19,856.18,1198.56Z"/><polygon class="cls-3" points="733.14 1193.54 735.9 1193.03 738.67 1169.85 731.41 1161.26 733.14 1193.54"/><polygon class="cls-4" points="729.82 1191.66 733.14 1193.54 732.62 1155.6 726.76 1154.26 729.82 1191.66"/><path class="cls-5" d="M755.33,1143.9l6.16,20.34s8.39,19.6,15.3,27.34c0,0,12.48,17.1-10.87,16,0,0-24.9-1.32-24.53-17.3.33-13.74-12.3-30.79-12.3-30.79-4.64-8,.06-14.56,1.63-16.4l4.32-4.93,20.94-3.66Z"/><path class="cls-4" d="M778.14,1197.88a31.37,31.37,0,0,1-27.12-8.2c-6.48-6.38-13.86-29.72-11.41-22,1,3.21-6.6-25.16-4.57-29.59l-4.32,4.93c-1.57,1.84-6.7,8.79-2.05,16.83,0,0,13.05,16.62,12.72,30.36-.37,16,24.53,17.3,24.53,17.3,14,.69,15.12-5.2,13.76-10A12,12,0,0,1,778.14,1197.88Z"/><path class="cls-4" d="M789.88,1204.71s3.51,6.65-7.64,6.65c0,0-41.79-2.66-41.77-20.61l0-14.46s3.29,20.64,29.09,20.69c0,0,11.46,0,5.54-7.3Z"/><path class="cls-6" d="M722.62,237.35a27.81,27.81,0,1,1-27.81-27.81A27.81,27.81,0,0,1,722.62,237.35Z"/><path class="cls-7" d="M714.75,365.51h54.76c-2.49-8-7.64-28.62.34-42.67l-55.33-36.33S724.35,347.48,714.75,365.51Z"/><path class="cls-8" d="M720.88,331.1c3.28,8.38,8.59,12.47,17.25,15.2a57.72,57.72,0,0,0,27.81,2.06c-.87-8.4-.41-17.92,3.91-25.52l-55.33-36.33s3,18.6,4.06,38.28C719.33,326.89,720.06,329,720.88,331.1Z"/><path class="cls-7" d="M780.38,335.53l2.91-8.24,7.09-24.23c1-3.85,1.44-9.11.12-12.86a38.89,38.89,0,0,1-1.12-20.12c4.5-22-5.28-33.56-5.28-33.56-12.87-20.28-43.25-20.18-43.25-20.18-37.55,1.95-40.62,38.31-40.62,38.31-6,24.2,13.26,44.28,13.3,44.32,2.44,2.54,2.7,6.66,3.88,9.81a30.27,30.27,0,0,0,5.51,9.19,67.43,67.43,0,0,0,19.25,15.45c6.71,3.42,19.72,6.93,29,6.83C775,340.21,778.71,340.26,780.38,335.53Z"/><polygon class="cls-3" points="605.08 1197.9 607.87 1198.3 617.92 1177.23 613.81 1166.76 605.08 1197.9"/><polygon class="cls-4" points="602.54 1195.05 605.08 1197.9 616.77 1161.78 611.64 1158.65 602.54 1195.05"/><path class="cls-7" d="M642,1158c-.55,17-1.81,36,5,52,0,0,6.33,20.2-15.42,11.63,0,0-23.16-9.24-17.68-24.25,4.72-12.91-1.77-33.11-1.77-33.11-1.82-9.1,4.72-13.77,6.8-15l5.68-3.29h21.77Z"/><path class="cls-4" d="M646.32,1216.45A31.38,31.38,0,0,1,623.26,1200c-4.09-8.11-3.6-32.59-3.76-24.46-.07,3.36,1.82-26,5.17-29.5L619,1149.3c-2.08,1.24-9.16,6.17-7.34,15.28,0,0,7,19.93,2.31,32.84-5.48,15,17.68,24.25,17.68,24.25,13.06,5.15,16-.08,16.25-5.08A12.36,12.36,0,0,1,646.32,1216.45Z"/><path class="cls-4" d="M655.24,1226.68s1.2,7.42-9.37,3.84c0,0-38.72-15.92-32.94-32.91l4.62-13.71s-3.51,20.6,20.91,28.93c0,0,10.85,3.68,7.59-5.14Z"/><path class="cls-7" d="M666.08,904.62c-27.77,51.27-32.69,72.15-37.62,111.14-2.89,22.68-1.93,118.21-4.9,132.46-1.24,5.91,21.21,2.67,21.21,2.67,4.1-10,69.48-229.49,69.48-229.49s7.31-22.74,1.25-26.69C685,874.85,678.18,882.26,666.08,904.62Z"/><path class="cls-9" d="M645.44,1155.47c4.11-10,68.81-234.07,68.81-234.07s7.31-22.74,1.25-26.69c-30.49-19.86-37.32-12.45-49.42,9.91-27.77,51.27-32.69,72.15-37.62,111.14-2.89,22.68-7.57,114.91-10.54,129.17C617.92,1144.93,634.53,1164.72,645.44,1155.47Z"/><path class="cls-9" d="M790.74,533.77S812.08,624.1,809.22,634c-8.25,28.43-84.82,68.31-154.64,10.15,0,0,16-66.81,49.1-123.32C703.68,520.79,715.86,533.37,790.74,533.77Z"/><path class="cls-10" d="M779.86,350.22s27.93,54,40.4,83.62C815,468.57,796.17,520.08,788.59,531,772,554.76,696,533.5,696,533.5L674.1,460.39c63.92-22.95,30.26-90.31,30.26-90.31l10-6.33s10.22,33.11,51.83,31.93c0,0,13.67-8.9,3.61-46.67A58.47,58.47,0,0,1,779.86,350.22Z"/><path class="cls-5" d="M710.33,658.29s7.35,145.72,34.31,224.1c4,11.68,50.09-3.85,50.09-3.85S818,753.16,816.58,701.21c-.79-29.36-11.29-92.67-11.29-92.67S718.89,597.25,710.33,658.29Z"/><path class="cls-5" d="M746,881.86l48.77-3.32s-30,248.77-32.68,259.22c0,0-21,7.59-20.54,1.56,1-14.52-16.47-126.16-17-149C723.65,953.59,725.09,930.39,746,881.86Z"/><path class="cls-11" d="M710.33,658.29s7.35,145.72,34.31,224.1c4,11.68,50.09-3.85,50.09-3.85S818,753.16,816.58,701.21c-.79-29.36-11.29-92.67-11.29-92.67S718.89,597.25,710.33,658.29Z"/><path class="cls-11" d="M768.09,1139.32c4.95-9.6,26.64-260.78,26.64-260.78L746,881.86c-20.87,48.53-22.31,71.73-21.45,108.44.53,22.86,11.6,134.5,10.58,149C735.09,1139.32,761.59,1151.94,768.09,1139.32Z"/><path class="cls-5" d="M868.07,527.12l-37-134c-13.31-35.85-33.16-36.73-33.16-36.73-38.07,5.76-13.7,72.56-13.7,72.56l47,111.32"/><path class="cls-5" d="M975.21,627.25c-16-11.86-17.09-15.08-19.51-19.9-10.42-20.69,16.16-16.16,22.65-13.64,3.72,1.45,2.61,10.64,12.9,23.59,0,0,17.17,13.69,21.91,13.59,0,0,4.72,1.4,4.21,4.88C1017.37,635.77,1003,641.61,975.21,627.25Z"/><path class="cls-5" d="M865.21,519.33l108.26,81.9c3,14.93-3.85,16-3.85,16L882.29,577.5c-37.38-16.19-50.4-34.81-50.4-34.81s-15.27-14.31,9.05-28.66C840.94,514,852,507.67,865.21,519.33Z"/><path class="cls-5" d="M975.27,592.78s-4.73,9.16,7.64,8.57L996,594.13s4-1.42,3.17-5.1c0,0-1.11-2.2-5.16-.78Z"/><path class="cls-7" d="M650.7,670.47s.56,145.78,19.79,226.41c2.86,12,46.78,8.33,46.78,8.33s28.66-137.87,32.31-189.7c2.07-29.3,7.93-80.57,7.93-80.57S654.69,624.74,650.7,670.47Z"/><path class="cls-7" d="M672,387.61c-22.42,16.38-11,41-11,41l42.33,102.79S772,554.76,788.59,531c7.58-10.87,14.6-39.68,23.81-81.24,6.27-28.24,6.69-77.58-9.21-92.19-9.16-8.43-38.84-8.26-39.06-9.26l-48.08,15.49Z"/><path class="cls-7" d="M762.58,523c4.06-.74,26,7.93,26,7.93s15.8,67.36,16.7,77.59-69.54,63.25-148.22,33.07c0,0,39.73-93.71,45.54-113.3C709.28,505.81,762.58,523,762.58,523Z"/><path class="cls-10" d="M800.79,391.88S824,419.23,826,439.54c1.08,11.32-13.2,30.25-20.34,37.23C800.55,481.72,770.56,410.76,800.79,391.88Z"/><path class="cls-9" d="M676.35,619.29s-27.74,6.16-25.24,57c2.44,49.67,92.86,60,104.47,10C768.07,632.4,725.72,600.83,676.35,619.29Z"/><path class="cls-12" d="M717.73,313c-.2-17.15.24-16.1.24-16.1.4-5,10.23,5.8,10-.73-.93-29.88,9.92-44.11,14.17-46.41,11.53-6.24,23.69-8,33.33-6.32,15.11,2.69,14.54,22.8,14.54,22.8,12.87-73.64-69.26-50.11-69.26-50.11-40,10.51-35.88,48.2-35.88,48.2-4.9,40.47,33.45,63.86,33.45,63.86Z"/><path class="cls-13" d="M720.36,307.16a8.1,8.1,0,0,1-5.22,1.58c-5.81-.08-10.65-5.53-10.78-12.14s4.46-11.91,10.27-11.83a10.22,10.22,0,0,1,7.21,3.29c2.79,2.92,2.88,8.31,2.21,12C723.53,303.05,722.36,305.6,720.36,307.16Z"/><path class="cls-14" d="M717,290.93c-.34-3.47-7.37-.16-6.31,1.8a10.66,10.66,0,0,0,2.82,2.74,5.13,5.13,0,0,1,2.16,3.81c0,.19.06.79-.14.93-.91.64-3.89-2.75-4.55-3.47a5.83,5.83,0,0,1-.84-5.56,3.48,3.48,0,0,1,3.85-2.6c1.58.09,3.19.2,3.1,2.16,0,0-.07.37-.09.19Z"/><path class="cls-14" d="M714.73,294.54c.73-.73,1.43-.12,2.18.41a3.35,3.35,0,0,1,1.26,2.05,8.19,8.19,0,0,1-.88,5.8,4.34,4.34,0,0,1-3.77,2c-2.12-.06-2.75-1.92-2.83-3.72,0-.47-.06-1.6.41-1.9s.87.46,1.2.8a3,3,0,0,0,1.8.68,3.82,3.82,0,0,0,3.14-1.41,1.79,1.79,0,0,0,.33-.54c0,1.17-.07,1.42-.19.78a3.12,3.12,0,0,0-.4-.82c-.49-.81-1.32-1.37-1.86-2.14-.27-.36-.76-1.62-.39-2Z"/><path class="cls-15" d="M753.67,281.57c.2,2.08-.78,3.88-2.19,4s-2.72-1.44-2.92-3.52.78-3.88,2.19-4S753.47,279.49,753.67,281.57Z"/><path class="cls-15" d="M782.56,277.68c.08,2.09-1,3.82-2.43,3.87s-2.62-1.59-2.7-3.68,1-3.83,2.43-3.87S782.48,275.59,782.56,277.68Z"/><path class="cls-12" d="M741.22,278.77c5.43-5.71,18.2-5.25,18.2-5.25s.85,0,.62-2.65c0,0-.06-2.3-1.9-2.08C758.14,268.79,741.89,267.72,741.22,278.77Z"/><path class="cls-12" d="M789.89,267.86c-5.67-4.6-16.09-1-16.09-1-1.84.26-1.3,2.5-1.3,2.5.46,2.57,1.3,2.39,1.3,2.39s8.62-2.66,15.37-1.09C789.42,269.72,789.67,268.79,789.89,267.86Z"/><path class="cls-1" d="M778.91,308l-20.58,3.81c-1.08.2-1.51.84-.93,1.42,0,0,5.92,5.92,12.59,4.67S780,309,780,309C780.29,308.28,779.79,307.9,778.91,308Z"/><path class="cls-14" d="M764.13,301.48c10.78-.78,11.37-3.6,11.37-3.6l-5.65-11.37S771.15,297.88,764.13,301.48Z"/><path class="cls-9" d="M650.7,670.47s.56,145.78,19.79,226.41c2.86,12,46.78,8.33,46.78,8.33s28.66-137.87,32.31-189.7c2.07-29.3,7.93-80.57,7.93-80.57S654.69,624.74,650.7,670.47Z"/><path class="cls-9" d="M790.74,533.77S812.08,624.1,809.22,634c-8.25,28.43-84.82,68.31-154.64,10.15,0,0,16-66.81,49.1-123.32C703.68,520.79,715.86,533.37,790.74,533.77Z"/><path class="cls-10" d="M696,533.5s78.13,24.08,94.75.27c7.59-10.87,24.3-65.2,29.52-99.93-12.47-29.62-40.4-83.62-40.4-83.62a58.47,58.47,0,0,0-10-1.21c10.06,37.77-3.61,46.67-3.61,46.67-41.61,1.18-51.83-31.93-51.83-31.93l-10,6.33s31,64.37-28.83,93.81C675.53,463.89,674.1,533,696,533.5Z"/><path class="cls-1" d="M720.63,308.37a3.56,3.56,0,1,1-3.56-3.57A3.55,3.55,0,0,1,720.63,308.37Z"/><path class="cls-7" d="M705.52,397a32.1,32.1,0,0,1-1.39,45.4c-12.92,12.16-53.53,35.34-53.91,17.6-.75-34.86.62-53.8,13.54-65.95S693.37,384.07,705.52,397Z"/><path class="cls-7" d="M707,426.47l-28.06-16.18L650.7,427.94S634.19,533.13,640.27,557.2c6.48,25.66,18.26,6.76,23.84-.26C664.11,556.94,710.15,446.91,707,426.47Z"/><path class="cls-7" d="M644.53,567.47s50.48,36,95.27,55.65c0,0,14.81-6.21,7.4-13-12.56-11.62-67.51-64.24-80.19-75.87C644.53,526.52,644.53,567.47,644.53,567.47Z"/><path class="cls-7" d="M765.35,643.25c-18.27-7.9-20.09-10.79-23.54-14.92-14.87-17.76,12-19.43,18.93-18.46,4,.56,5,9.77,18,20,0,0,19.84,9.39,24.43,8.22,0,0,4.91.28,5.21,3.78C808.34,641.89,795.71,650.86,765.35,643.25Z"/><path class="cls-7" d="M759.89,609.65s-7.83,6.73,3.86,10.82l14.85-1.79s4.19.17,4.84-3.54c0,0-.2-2.46-4.49-2.66Z"/><g class="cls-16"><path class="cls-17" d="M1076.15,740.52l-.66-.14c-.33-.08-.67-.16-1-.22l-.74-.13c-.24,0-.47-.09-.71-.12l-.51,57.45-95.13,64.18L978,793l78.81-53.17c-1.16.13-2.32.3-3.5.49l-.76.13-1.34.24-.91.18-1.31.28-.82.18-2.07.49-.55.14c-.85.22-1.7.46-2.55.71l-.45.13c-1.17.35-2.34.72-3.51,1.12l-.12.05c-1.18.4-2.34.83-3.5,1.28l-.25.09c-1.31.52-2.61,1.07-3.89,1.65l-.18.08c-1.3.58-2.58,1.2-3.84,1.85l-.12.07c-1.28.65-2.53,1.35-3.75,2.07l-.07,0c-1.24.73-2.46,1.5-3.63,2.29-10.5,7.09-16,15-16.09,21.82q.3-34.28.61-68.55c0-6.78,5.58-14.73,16.08-21.82,1.18-.8,2.39-1.56,3.63-2.3l.07,0c1.23-.73,2.47-1.42,3.75-2.08l.13-.06c1.25-.65,2.53-1.27,3.82-1.86l.2-.08c1.27-.58,2.56-1.12,3.87-1.64l.08,0,.22-.08c1.13-.44,2.28-.86,3.43-1.26l.16-.06c1.16-.39,2.31-.75,3.47-1.1l.31-.1.19,0c.85-.25,1.69-.48,2.53-.7l.57-.14c.68-.17,1.36-.34,2-.49l.41-.1.46-.09,1.25-.27,1-.19,1.27-.23.67-.12.16,0c1.17-.19,2.33-.35,3.49-.49l.3,0,.22,0q1.52-.18,3-.27l.26,0h.33c.94-.06,1.86-.1,2.78-.12h.08c.86,0,1.71,0,2.56,0h.34l.29,0c.85,0,1.69.07,2.51.14h.08l.19,0c.85.07,1.69.16,2.51.28a2.66,2.66,0,0,1,.28,0l.19,0,1,.17c.26,0,.52.08.78.14s.63.12.94.2.44.08.65.14l.08,0c.74.18,1.45.38,2.15.6l.48.16c.71.23,1.39.48,2,.75s1,.48,1.49.73l.41.23c.16.1.34.19.5.28l.39.26.5.32c.26.18.51.36.74.54s.29.21.42.32l.14.11c.29.23.55.48.8.72l.11.1c.2.19.39.39.57.59v0h0v0l.17.19.26.3c.18.21.35.43.51.65l.23.3.11.16c.08.11.15.23.22.34s.28.42.41.64.19.32.28.48l.36.65a2,2,0,0,0,.11.2l.1.22c.19.39.38.77.55,1.16l.09.19c.23.52.46,1.05.68,1.58l.45,1,.21.46q.3.67.63,1.35l.36.66.2.37c.2.34.4.68.63,1s.3.43.45.64.44.6.68.89l.3.39c.32.4.66.79,1,1.18l.06.07c.37.4.77.8,1.17,1.19.12.12.25.23.37.33.3.29.6.56.92.83l.47.39c.32.27.65.52,1,.78l.45.33c.5.35,1,.7,1.55,1l.1.05.16.09.1.05.23.13.16.08.28.14.19.1.32.15.26.13.34.17.4.19.25.12.48.22.26.12.77.35c1.8.8,3.92,1.68,5.9,2.34l95.22-64.26-.6,68.55-95.22,64.26c-2-.66-4.1-1.53-5.9-2.34l-.78-.35-.13-.06-.6-.28a1.51,1.51,0,0,1-.22-.11l-.44-.2-.27-.13-.33-.16-.21-.1-.31-.16-.16-.08-.27-.14-.12-.07-.22-.11-.08-.05a.74.74,0,0,1-.13-.08h0c-.54-.33-1.05-.68-1.54-1l-.48-.35c-.33-.25-.66-.5-1-.76l-.25-.2-.23-.2c-.31-.26-.61-.53-.9-.8l-.38-.36c-.41-.39-.8-.79-1.16-1.18h0l-.08-.09c-.35-.38-.68-.77-1-1.15l-.3-.39c-.24-.3-.47-.6-.69-.91-.05-.07-.11-.14-.16-.22l-.28-.41c-.23-.33-.43-.66-.63-1-.09-.15-.17-.31-.26-.47s-.2-.35-.28-.52v0c-.24-.45-.45-.91-.66-1.37-.05-.13-.11-.25-.16-.38l-.54-1.23c-.2-.46-.4-.94-.61-1.41l-.12-.26c-.17-.37-.34-.73-.52-1.1-.08-.14-.15-.3-.23-.44s-.23-.43-.35-.64-.18-.33-.28-.49-.27-.43-.41-.64l-.33-.49-.23-.31c-.17-.22-.33-.43-.51-.64l-.27-.31c-.23-.26-.48-.52-.73-.78l-.11-.1c-.29-.28-.61-.55-.94-.83l-.42-.31c-.23-.19-.48-.36-.74-.54l-.5-.33c-.28-.18-.58-.36-.89-.53l-.42-.23c-.46-.25-1-.5-1.48-.73s-1.34-.52-2-.76l-.49-.16C1077.61,740.9,1076.89,740.7,1076.15,740.52Z"/><path class="cls-18" d="M682.63,737.52l.6-68.56,122.09,51.37-.5,57.06h.12l.79.09c1,.11,1.95.21,2.9.29l.29,0c.71.06,1.4.1,2.1.14l.78,0,1.57.07H814c1.22,0,2.43.05,3.62,0H818c1,0,2-.06,2.92-.12l.22,0c.89-.06,1.76-.14,2.61-.23l.65-.08c.72-.08,1.44-.18,2.14-.29l.26,0c.76-.13,1.49-.27,2.21-.43l.55-.13q1-.22,2-.51l.28-.07.39-.13,1-.33.51-.19c.29-.11.58-.21.86-.33l.47-.2.81-.36.44-.21.8-.42.36-.2c.37-.22.73-.44,1.07-.67,4.58-3.09,5.27-7.06,5.39-11.17l0-3.34c0-3.39.26-6.74,2.49-9.68a58.28,58.28,0,0,1,9.53-7.24L978,793l-.6,68.55-121.94-51.3a57.83,57.83,0,0,0-9.53,7.23c-2,2.65-2.4,5.62-2.48,8.65l0,3.33c0,4.48-.43,8.86-5.41,12.22-.34.23-.69.45-1.06.66l-.37.2-.79.42-.45.22-.8.36-.47.2-.26.11-.61.21-.5.19-1,.33-.43.14-.07,0-.18,0c-.64.19-1.32.36-2,.52l-.29.08-.24,0c-.73.15-1.47.3-2.23.43h-.05a.9.9,0,0,0-.16,0c-.72.11-1.46.21-2.21.3l-.31,0-.3,0c-.86.1-1.73.17-2.62.23h-.24c-1,.06-1.93.1-2.92.12l-.3,0H817c-1.18,0-2.39,0-3.62,0h-.59c-.51,0-1,0-1.55-.07-.27,0-.53,0-.79,0-.74,0-1.49-.09-2.24-.16H808c-1-.08-1.94-.18-2.92-.28l-.77-.09c-.86-.11-1.73-.22-2.61-.35l-.32,0h-.11l-2.43-.38-.42-.08-2.05-.37-.91-.19c-.52-.1-1-.2-1.56-.32l-1-.23-1.47-.33-.39-.09-.33-.08c-1.32-.32-2.65-.67-4-1l-.52-.14c-1.34-.39-2.68-.79-4-1.22l-.41-.13c-1.37-.46-2.73-.92-4.09-1.42a1.7,1.7,0,0,0-.24-.09c-1.4-.53-2.8-1.08-4.17-1.66-.68-.28-1.34-.58-2-.86q-1.4-.61-2.7-1.26l-.89-.44c-.58-.29-1.14-.57-1.69-.86l-1-.52-1.49-.82-.91-.53-.55-.33c-.31-.18-.6-.37-.9-.56s-.53-.32-.79-.49c-.53-.34-1-.69-1.57-1l-.5-.34c-.66-.47-1.3-.93-1.91-1.4L756,828l-1.07-.86-.19-.16c-.44-.38-.86-.75-1.27-1.13l-.56-.51c-.57-.55-1.12-1.09-1.62-1.64h0c-.44-.48-.85-1-1.23-1.44-.13-.16-.23-.31-.35-.46s-.42-.53-.6-.79l-.14-.22-.26-.4c-.22-.33-.43-.67-.62-1-.07-.15-.16-.28-.23-.42l-.13-.24c-.18-.35-.34-.7-.49-1.06a.87.87,0,0,1-.07-.17c-.1-.25-.2-.49-.28-.73s-.1-.31-.14-.47l-.07-.23a10.52,10.52,0,0,1-.24-1l0-.21,0-.22a9.48,9.48,0,0,1-.08-1.18v-.12q.21-24.4.43-48.8Z"/><path class="cls-19" d="M1207.92,637.84l-294.75-124L683.23,669l122.09,51.37a52,52,0,0,1-8.23,5.37A67.41,67.41,0,0,1,782,730.08c-10.27,1.9-22.87,1.59-30.19,6.52-11.44,7.72-2.43,21.74,20.08,31.77.65.3,1.32.58,2,.87,24,10.08,52.93,11.82,64.7,3.87,9.56-6.45,2.2-16.69,7.91-24.19a58.28,58.28,0,0,1,9.53-7.24L978,793l95.13-64.19-1.22-.56a112.47,112.47,0,0,0-12.52-4.59c-14.19-3.11-33.37.67-45.63-4.49-15-6.69-12-21.86,6.53-34.33,18.69-12.61,46.07-17.69,61.16-11.35,9.36,4.17,9,10.74,12.63,16.13a27.73,27.73,0,0,0,8.43,8.06c.45.27,2.15,1.12,4.3,2.09,1.8.8,3.92,1.68,5.9,2.34Z"/></g><g class="cls-16"><path class="cls-20" d="M938.26,916.93c0,.17,0,.33,0,.51s0,.36,0,.54,0,.29-.05.44l-.06.52c0,.17-.07.34-.1.51s0,.25-.08.38-.09.35-.14.51-.07.24-.11.37a1.19,1.19,0,0,1-.08.2,10.07,10.07,0,0,1-.58,1.4s0,0,0,0a10.48,10.48,0,0,1-.77,1.27,2.39,2.39,0,0,1-.13.21,14.73,14.73,0,0,1-1,1.17c-.09.11-.19.21-.29.31s-.22.24-.33.34l-.4.37-.37.33c-.11.1-.23.19-.35.28l-.67.52-.37.25c-.25.17-.5.34-.77.5l-.35.22c-.22.14-.46.26-.71.39l-.4.23c-.38.18-.77.38-1.18.56a32.28,32.28,0,0,1-4.93,1.59c-1.37.33-2.78.6-4.24.81s-2.8.35-4.24.47q-3,.24-6.14.31c-4.54.14-9.21.09-13.74.21-2,.07-4,.16-6,.31l.61,69.69q3-.24,6-.31c4.53-.13,9.19-.09,13.74-.22,2.07,0,4.12-.15,6.13-.31,1.45-.12,2.86-.28,4.24-.47s2.87-.48,4.24-.81a31.92,31.92,0,0,0,4.93-1.59c.41-.18.81-.37,1.19-.57l.33-.18c.27-.14.53-.29.79-.44l.08,0,.22-.15c.28-.16.55-.34.81-.51l.36-.26.67-.51c.07-.06.14-.1.2-.16l.16-.13.36-.33.4-.37.33-.33.21-.22.08-.1a11.68,11.68,0,0,0,1-1.18l.06-.07.08-.13a12.77,12.77,0,0,0,.77-1.28h0a11.52,11.52,0,0,0,.59-1.42.37.37,0,0,0,0-.11.45.45,0,0,0,0-.08,3.17,3.17,0,0,0,.12-.41c.05-.15.09-.3.13-.46s.06-.28.08-.42.06-.23.08-.34,0-.09,0-.13,0-.37.07-.56,0-.27,0-.4l0-.63c0-.1,0-.2,0-.29v-.14Z"/><path class="cls-20" d="M882.08,934.07l-.08,0a114.83,114.83,0,0,0-12.64,4.65c-.44.19-.86.38-1.25.58l.61,69.67c.4-.19.81-.38,1.25-.57a117.82,117.82,0,0,1,12.64-4.65l.07,0c1.1-.24,2.23-.44,3.37-.61,1.38-.19,2.78-.35,4.21-.46L889.65,933c-1.43.12-2.84.27-4.21.47C884.29,933.63,883.17,933.84,882.08,934.07Z"/><path class="cls-21" d="M965.41,1074.24l-.62-69.69-124.08,52.22.51,58c-14.41,1.73-27.36.38-34.35-4.34-4.65-3.14-5.35-7.15-5.47-11.33l0-3.45c0-3.43-.27-6.83-2.53-9.81a61.15,61.15,0,0,0-9.68-7.36l-123.95,52.15.61,69.69,123.95-52.16a59.44,59.44,0,0,1,9.68,7.36c2,2.67,2.43,5.67,2.51,8.74l0,3.45c0,4.55.45,9,5.5,12.4,12,8.08,41.4,6.31,65.75-3.94.69-.29,1.37-.58,2-.88,16.2-7.22,25.52-16.47,25.46-24q-.22-24.81-.44-49.59Z"/><path class="cls-20" d="M929,929.29l.61,69.68c-13,5.46-32.47,1.62-46.89,4.78a114.9,114.9,0,0,0-12.71,4.67c-.44.19-.85.38-1.25.57l-.61-69.67c.39-.2.81-.39,1.25-.58a117,117,0,0,1,12.72-4.67C896.48,930.91,916,934.75,929,929.29Z"/><polygon class="cls-20" points="665.21 1130.61 431.49 972.92 432.1 1042.59 665.82 1200.3 665.21 1130.61"/><path class="cls-22" d="M895.07,1073.3c-7.43-5-20.25-4.7-30.68-6.62a67.7,67.7,0,0,1-15.32-4.47,53,53,0,0,1-8.36-5.44l124.08-52.22-96.68-65.23c.39-.2.81-.39,1.25-.58a117,117,0,0,1,12.72-4.67c14.4-3.16,33.91.68,46.88-4.78,14.76-6.58,11.65-22-7.15-34.67-19-12.83-46.83-18-62.62-11.33-9.05,4-8.69,10.71-12.37,16.18a28.23,28.23,0,0,1-8.58,8.2c-.45.27-2.2,1.15-4.4,2.13-1.82.82-4,1.7-6,2.37l-96.8-65.32L431.49,972.92l233.72,157.69,123.95-52.15a61.15,61.15,0,0,1,9.68,7.36c5.79,7.63-1.68,18,8,24.59,12,8.07,41.41,6.3,65.76-3.94.69-.28,1.36-.58,2-.87C897.54,1095.39,906.7,1081.15,895.07,1073.3Z"/></g><path class="cls-2" d="M1515.73,1340.4c0,41.38,75.38,74.91,168.36,74.91s168.36-33.53,168.36-74.91-75.38-74.91-168.36-74.91S1515.73,1299,1515.73,1340.4Z"/><path class="cls-23" d="M1627.37,1323.6c-11.89,12-31.49,18.36-31.49,18.38-16.53,4.19-26.26-6.8-26.26-6.8-3.54-5,.77-7.69.77-7.69,34.85-26.5,45.28-34,45.28-34h32c1.57,12.87.7,18,.7,18a27.74,27.74,0,0,1-17.55,10.64c-.66.11-1.89-.86-2.51-.6Z"/><path d="M1570.24,1327.6a9.21,9.21,0,0,0,.67,2.19c2.71,5.79,10.23,8.19,16.2,8.1,7.16-.1,13.67-3.6,19.92-6.76a88.51,88.51,0,0,0,16.49-11.19c3.61-3,8.21-4.39,12.48-6.24,4.8-2.1,8.42-5.36,12.58-8.48,0,3.45-.22,6.31-.22,6.31a27.74,27.74,0,0,1-17.55,10.64c-.66.11-1.89-.86-2.51-.6l-.93,2c-11.89,12-31.49,18.36-31.49,18.38-16.53,4.19-26.26-6.8-26.26-6.8C1566.47,1330.77,1569.52,1328.13,1570.24,1327.6Z"/><path class="cls-5" d="M1651.19,1034c-35.58,39.28-49.68-2.27-49.68-2.27l-4.4-241.43c-.47,3.59-1.65-24.35,43.27-18.3s56.12,23.49,56.12,23.49-24.64,166.76-45.31,238.51"/><path class="cls-5" d="M1601.29,1028.71s18,254.26,19.52,263.18c0,0,22,4.86,22-.2.25-12.18,25.31-161,25.63-180.11.82-48.45-11.67-57.61-24.13-90.25C1644.35,1021.33,1601.2,989.43,1601.29,1028.71Z"/><path class="cls-24" d="M1661.9,1043.17c20.67-71.75,34.6-247.65,34.6-247.65s-11.34-17.46-56.12-23.49-43.74,21.89-43.27,18.3c0,0-13.61,130.92-1.15,249.91C1596,1040.24,1634.33,1060.61,1661.9,1043.17Z"/><path class="cls-7" d="M1729.79,660.82c6.35,22.6,32.54,108.81,32.54,108.81-93.77,112.18-164.41,14-165.34,3.79-1.12-12.25,12.55-59,15-109.46C1612,664,1637.59,624.6,1729.79,660.82Z"/><path class="cls-24" d="M1597.53,801.5c-4.44-30.22,4.77-60.69,9.51-91.23H1744.4c8.79,29.28,17.93,59.36,17.93,59.36s5.87,69.26-52.95,77.56C1709.38,847.19,1606.87,865,1597.53,801.5Z"/><path class="cls-7" d="M1753.79,1039.32c-29.37,44.11-49.47,5.11-49.47,5.11l-47.64-235.2c.08,3.63,1.43-30.63,46.75-31.3s59,14.91,59,14.91,1.19,172.46-8.62,246.48"/><path class="cls-7" d="M1703.64,1041.44s47.17,267.94,49.95,276.54c0,0,22.42,1.55,21.77-3.46-1.56-12.09,2.48-181,0-200-6.37-48-13-56.3-30.19-86.74C1745.14,1027.77,1697.74,1002.61,1703.64,1041.44Z"/><path class="cls-23" d="M1751.45,1312.8l-13.27,40.47s2.74,36.22,31.79,13.77l8.65-8.38a9.24,9.24,0,0,0,3.12-8.89l-2.58-15.51-3.08-21.46S1757.88,1300.45,1751.45,1312.8Z"/><path d="M1770,1361.87l8.65-8.38a9,9,0,0,0,3-4.63l.15.91a9.24,9.24,0,0,1-3.12,8.89L1770,1367c-29,22.45-31.79-13.77-31.79-13.77l.51-1.58C1740.33,1360.24,1746.73,1379.83,1770,1361.87Z"/><path class="cls-25" d="M1698.51,1050.92c-16.55-48.56-47.78-249.42-47.78-249.42.07,3.62,9.35-48,54.67-48.64s56.93,16.77,56.93,16.77,14.15,196.59,4.34,270.61C1766.67,1040.24,1734.84,1077,1698.51,1050.92Z"/><path class="cls-5" d="M1619,506.31s-76.73,90.24-114.88,120.13c0,0-25.64-9.47-24.85-26.9,0,0,56.17-83.1,91.44-132.26C1570.69,467.28,1618.38,453.55,1619,506.31Z"/><path class="cls-5" d="M1490.36,592s-83.79,48.77-118.48,65.08c0,0-6.23,9.75,3.82,10.67,16.79,1.54,133.54-38,136.39-47.18C1525.39,577.78,1490.36,592,1490.36,592Z"/><path class="cls-5" d="M1566.9,496.24a31.28,31.28,0,0,0,40,18.5A30.85,30.85,0,0,0,1625,474.88a31.27,31.27,0,0,0-40-18.5A30.85,30.85,0,0,0,1566.9,496.24Z"/><path class="cls-26" d="M1605.21,454.66s-27.35-9.59-46.15,17.25L1492.13,569s13.8,30.91,46.37,47.78C1538.5,616.77,1658.32,506.42,1605.21,454.66Z"/><path class="cls-13" d="M1682.74,422.06s5.53-10.62,17.71-31c0,0,25.93-26.63,11.41-60.1,0,0-8-28-56.92-23.92C1654.94,307,1650.25,384.06,1682.74,422.06Z"/><path class="cls-7" d="M1684.68,378.45s-8.23,76.77,9.33,82.58l-62.62-3.73s9.84-23.2-1.6-40.31Z"/><path class="cls-8" d="M1634.83,443.89c1.05-17.54-1.16-21.1-5-26.9l54.89-38.54s-2.65,24.8-1.73,47.28C1667.06,440.77,1653.93,444.31,1634.83,443.89Z"/><path class="cls-7" d="M1587.23,454.51c-13.94,10.18-15.55,34.54-10.56,49.76,5.71,17.48,8,39.78,13.7,65.05,7.75,34.25,13,60.63,21.65,94.64,7.16,28.13,120.19,5.47,120.19,5.47L1772.72,531s7-36.15-25.76-48.17c0,0-34.49-18.62-59.74-27.18-22.3-7.55-30.37-8.25-53.26-6.85C1634,448.79,1603.29,449.92,1587.23,454.51Z"/><path class="cls-27" d="M1607.37,312.85c-3.23,14.73-6.89,22.42-2.82,35.93,3.66,12.12,2.81,24.86,8.1,36.62,7.56,16.76,17.38,14.57,24.9-.85,7.69-15.79,15.71-37.11-1.66-48.81-11.15-7.51-15.17-20.42-28.52-22.89Z"/><path class="cls-13" d="M1617,427.93l-2.6-8.68s-6.59-32.09-6.59-32.1a32.46,32.46,0,0,1,.51-13.34c1.11-4.36,2-8.94,1.14-13.69-4-23,8.57-35,8.57-35,14.35-20.38,45.82-18.78,45.82-18.78,38.84,3.88,40.22,41.72,40.22,41.72,5.07,25.37-15.92,45.24-16,45.28-1.68,1.58-1.28,9.87-1.87,12.2-2.56,9.9-12.44,15.56-21.13,19.37-9.55,4.18-21.07,8.56-31.53,9C1629.64,434.06,1618.54,432.91,1617,427.93Z"/><path class="cls-27" d="M1608.64,386.56c5.1,4.6,12,2.5,17.48,5.84,3.55,2.17,5.32,2,9.21.9a14.5,14.5,0,0,1,8.78.29c3.24.94,9.12,3.76,12.26,5,4.81,1.94,10.2,1.33,13.93-3.22,3.91-4.76,5.39-5.74,7.23-11.44,3.37-10.5,14-11.13,21.29-5.24a62.72,62.72,0,0,1-10.67,14.61c-1.68,1.58-1.28,16.72-1.87,19.05-2.56,9.9-12.44,15.56-21.13,19.37-9.55,4.18-24.12,4.76-34.59,5.19-4,.17-12-4-13.52-9l-2.6-8.68s-6.59-32.09-6.59-32.1c-.12-.56-.16-1.18-.23-1.78A9.69,9.69,0,0,0,1608.64,386.56Z"/><path class="cls-27" d="M1607.93,326.54c8.8,0,8.69,7.36,15.43,11.46,14.44,8.79,36.85-4.09,48.48,10.15a27.28,27.28,0,0,1,3,4.51c3.43,6.42,4.46,14.17,5.55,21.29.33,2.1-1.23,7.46.68,9.07,1.09.93,3,.65,5,0,.39,3.22-2.2,5.69-3.31,8.64s-2.85,5.49-1.28,8.49c4.06,7.7,1,6.43,1.31,21.9,2.51-3.66,8.69-8.12,10.64-9.83,5.65-4.92,11-10.28,15-16.63s6.56-13.18,9.13-20.05c4.2-11.26,6.63-23.44,3.25-35.25,0,0-2.65-27.44-25.61-30.39,0,0,2.92-17.67-39-22.35,0,0-33.13.52-35-10.91,0,0-6.7,5.72-5,14.56,0,0-13.62,4.15-19.75-11.44C1596.4,279.77,1585.05,320.83,1607.93,326.54Z"/><path class="cls-13" d="M1682.15,399.8a6.86,6.86,0,0,0,4.41,2.62c5.22,1,10.45-3.9,11.68-10.86s-2-13.36-7.21-14.31a8.4,8.4,0,0,0-7,2.17c-3,2.57-4,8.23-4,12.27C1680,394.92,1680.61,397.81,1682.15,399.8Z"/><path class="cls-14" d="M1687.78,383.42c.81-3.64,7.84.78,6.47,2.72a11.33,11.33,0,0,1-3.35,2.55,5.5,5.5,0,0,0-2.77,3.76c-.06.21-.17.84,0,1,.89.79,4.48-2.43,5.28-3.11a6.2,6.2,0,0,0,1.6-5.79,3.74,3.74,0,0,0-3.77-3.27c-1.68-.1-3.4-.19-3.55,1.91,0,0,0,.4.07.21Z"/><path class="cls-14" d="M1689.71,387.54c-.69-.88-1.5-.32-2.37.16a3.55,3.55,0,0,0-1.6,2,8.72,8.72,0,0,0,.19,6.28,4.71,4.71,0,0,0,3.75,2.62c2.25.2,3.16-1.71,3.48-3.6.08-.5.27-1.71-.19-2.08s-1,.38-1.38.7a3.17,3.17,0,0,1-2,.49,4.08,4.08,0,0,1-3.17-1.9,2.07,2.07,0,0,1-.27-.61c-.15,1.24-.12,1.53.1.86a3.26,3.26,0,0,1,.53-.83c.62-.8,1.58-1.29,2.25-2,.32-.34,1-1.62.67-2.06Z"/><path class="cls-14" d="M1628.21,384.65l10.59,4.08s-14.28.89-14.83-3.26c0,0,2.16-8.09,4.5-15.76C1628.47,369.71,1626.64,384,1628.21,384.65Z"/><path class="cls-27" d="M1646.68,369.71c0,2.24,1.24,4,2.76,4s2.74-1.8,2.74-4-1.23-4-2.74-4S1646.68,367.47,1646.68,369.71Z"/><path class="cls-27" d="M1616.15,366.31c0,2.25,1.24,4.05,2.76,4.05s2.74-1.8,2.74-4.05-1.23-4-2.74-4S1616.15,364.08,1616.15,366.31Z"/><path class="cls-27" d="M1643.82,361.86c-1,.2-1.23-1.13-1.23-1.13a4.61,4.61,0,0,1,.07-2.37,2.31,2.31,0,0,1,1.17-1.2c2.56-.35,7.5.28,11.7,1.53,2.32.69,6.08,2.42,6.33,4.56.07.64.13,1.74-.6,1.94A95.49,95.49,0,0,0,1643.82,361.86Z"/><path class="cls-27" d="M1609.11,358.38a83.1,83.1,0,0,1,13.65,1.42c.89.47,1.48-.74,1.49-.74a4.72,4.72,0,0,0,.58-2.3,2.31,2.31,0,0,0-.81-1.47,24.78,24.78,0,0,0-10.11-1.58,19.65,19.65,0,0,0-5.09.69S1608.53,355.21,1609.11,358.38Z"/><path class="cls-1" d="M1622.3,397.57c-.86,0-1.33.39-1,1,0,0,3.81,7.16,10.48,8s12.11-5.23,12.11-5.23c.53-.58.07-1.17-1-1.31C1642.88,400,1631.37,398.54,1622.3,397.57Z"/><path class="cls-25" d="M1752.84,742.21s24.06,38.83,0,82.34-97.5,27.65-97.72-28.71C1654.91,740.16,1705.58,718.87,1752.84,742.21Z"/><path class="cls-26" d="M1634,448.79s-30.67,1.13-46.73,5.72c-13.94,10.18-15.55,34.54-10.56,49.76,5.71,17.48,8,39.78,13.7,65.05,7.75,34.25-2,59.29,6.62,93.3,7.15,28.13,156.73,0,156.73,0l19-131.63s7-36.15-25.76-48.17c0,0-32.92-18.08-58.17-26.63,0,0,3.93,26.63-39.48,19.27C1649.31,475.46,1622.79,469.07,1634,448.79Z"/><path class="cls-26" d="M1753.72,662.62c6.35,22.6,11.37,98.77,11.37,98.77-17.19,71.32-175.39,20-176.33,9.78-1.11-12.25,3.73-70.53,6.21-121C1595,650.21,1661.51,626.41,1753.72,662.62Z"/><path class="cls-7" d="M1707.09,534.36c10.32,21,48.64,126.95,61,143.7,3.28,4.45,34.86,24.8,42-2.93-17.4-110-43.73-172.73-43.73-172.73s-30.75-25.64-55.31-1.94C1711,500.46,1699.81,519.82,1707.09,534.36Z"/><path class="cls-7" d="M1702.74,515.59a37,37,0,1,0,42.64-30.33A37,37,0,0,0,1702.74,515.59Z"/><path class="cls-26" d="M1739.23,478.77s31.8,11.93,39.33,37.73l19.63,70.24s-25.72,37.41-64.06,36.16l-37.87-84.12S1670.78,491.53,1739.23,478.77Z"/><path class="cls-5" d="M1332.12,679.7l9.79-.27s-17.86,4.59-23.62-1.22c0,0-1.47-.91.82-3,0,0,15.8-.53,22.74-2.53,0,0-15.63,3.78-26.76,2.66,0,0-4.36-2.87.34-5.46-3.55-1.38-.52-3.72-.52-3.72a62.38,62.38,0,0,1,10.64-4.1,251.51,251.51,0,0,0,24.39-9.51s-10.31-6.75-6.45-12.18l15.9,8.38,14.39,9.25,1.92,9.74-15,10.41s-14.55,5.85-22.79,6.13C1337.94,684.29,1314.3,683.45,1332.12,679.7Z"/><path class="cls-25" d="M1698.51,1050.92l41.14,256.39s13.63,13.14,45.26,0l5.25-125.27s9.28-82.77-23.49-141.8C1766.67,1040.24,1702.1,988.13,1698.51,1050.92Z"/><path class="cls-24" d="M1661.9,1043.17s17.52,25.34,1.82,120.44l-16.06,129.87s-18.47,11.07-39.26.51l-12.94-258.73S1607.07,991.34,1661.9,1043.17Z"/><g class="cls-16"><path class="cls-28" d="M1361.71,730.18c0-3.12-1.65-5.95-5-8.24a19,19,0,0,0-1.7-1l-.57-.28-1.31-.59-.33-.14-.3-.1c-.71-.28-1.45-.53-2.21-.76h0c-.77-.22-1.57-.42-2.38-.6l-.27-.07-.34-.07c-1-.2-1.93-.39-2.92-.56h-.08l-.25,0c-1-.16-2.06-.31-3.11-.45l-.33,0c-1.11-.14-2.22-.26-3.33-.39a1.08,1.08,0,0,0-.19,0l-2.7-.31-3.16-.37c-.18,0-.38-.05-.57-.08-1-.14-2-.28-3-.44-.52-.09-1-.17-1.55-.27-1-.19-2.1-.41-3.15-.63l-.57-.13q-1.14-.25-2.28-.54l-.06,0c-.77-.2-1.52-.4-2.27-.62l-.71-.22c-.52-.15-1-.31-1.54-.48l-.74-.25-1.54-.56c-.19-.08-.39-.14-.57-.22-.65-.25-1.28-.52-1.88-.79a54.46,54.46,0,0,1-8.36-5.45l.61,69.68a54.17,54.17,0,0,0,8.36,5.45c.6.27,1.23.53,1.87.8l.14,0,.44.16,1.55.57.72.24,1.58.5.44.13.23.06c.75.22,1.52.44,2.29.63h0l2.34.55.22,0,.31.07c1.06.23,2.12.45,3.17.64l1.3.23.26,0c1,.16,2,.3,3,.44l.61.08,3.1.37h0l2,.23c.28,0,.55.07.83.09l3.37.41a2.06,2.06,0,0,0,.26,0c1.06.14,2.11.29,3.15.47l.33.05c1,.16,2,.35,2.92.55l.62.14c.81.18,1.61.38,2.38.61s1.53.49,2.25.77l.63.24c.45.18.88.38,1.31.59l.56.27a16,16,0,0,1,1.71,1c3.4,2.29,5,5.13,5,8.24Z"/><path class="cls-29" d="M1260.75,883.63l.71-.16,1-.21.81-.14.68-.12.52,58.39,96.68,65.25-.61-69.68-80.09-54.05c1.17.14,2.35.3,3.53.5l.82.14,1.33.24,1,.19,1.27.26.89.21c.69.15,1.38.32,2.07.49l.57.15c.86.22,1.72.46,2.58.71l.49.14c1.19.36,2.37.73,3.54,1.13l.17.06c1.18.4,2.34.83,3.5,1.28l.28.12c1.33.51,2.65,1.07,3.95,1.66l.19.08c1.32.59,2.61,1.23,3.89,1.89l.13.06c1.3.67,2.57,1.38,3.81,2.11,0,0,0,0,.06,0,1.27.75,2.5,1.52,3.7,2.33,10.68,7.2,16.29,15.29,16.35,22.18q-.3-34.85-.61-69.68c-.06-6.89-5.68-15-16.35-22.18q-1.8-1.21-3.7-2.33l-.06,0c-1.24-.74-2.52-1.44-3.81-2.11l-.14-.06c-1.27-.66-2.57-1.29-3.88-1.89l-.2-.08c-1.3-.59-2.61-1.14-3.94-1.67l-.08,0-.2-.07c-1.17-.46-2.34-.9-3.53-1.3l-.13-.05c-1.19-.41-2.38-.78-3.57-1.13l-.28-.09-.18,0c-.86-.26-1.73-.49-2.6-.72l-.53-.13-2.12-.51-.4-.1-.44-.09-1.33-.28-.92-.18-1.34-.24-.64-.11-.17,0c-1.2-.2-2.39-.36-3.57-.5l-.28,0-.21,0c-1-.11-2.06-.21-3.07-.29l-.25,0h-.34c-1.89-.12-3.73-.16-5.54-.11h-.6c-.87,0-1.74.07-2.58.14h-.06l-.15,0c-.89.07-1.75.17-2.6.29l-.28,0-.19,0c-.35.05-.7.11-1,.18l-.74.13-1.06.22-.56.13-.08,0c-.75.18-1.49.39-2.2.61l-.48.16c-.72.24-1.42.49-2.09.77s-1,.5-1.51.74l-.42.24-.51.28-.4.26-.51.33c-.26.18-.51.36-.75.55l-.43.32-.15.12c-.28.24-.56.48-.81.72l-.09.1c-.21.2-.41.4-.6.61s-.11.13-.16.19l-.27.31c-.18.22-.36.43-.52.66l-.23.3-.12.17a3.26,3.26,0,0,0-.22.34c-.15.22-.29.43-.42.65s-.19.33-.29.5l-.35.63-.12.23a2.56,2.56,0,0,0-.11.24c-.19.37-.37.75-.54,1.12,0,.09-.07.17-.11.25l-.66,1.5c-.16.38-.32.77-.49,1.15l-.2.44c-.2.46-.42.91-.65,1.36-.12.25-.25.49-.38.72l-.18.33c-.2.34-.41.69-.63,1l-.45.63c-.22.3-.46.61-.7.92l-.31.39c-.32.4-.66.79-1,1.19a.73.73,0,0,0-.08.09c-.38.4-.78.81-1.2,1.21l-.36.35-.94.83-.49.4c-.32.26-.66.53-1,.78l-.47.36c-.51.35-1,.7-1.57,1l-.18.09-.07.05-.22.12-.12.06-.27.13-.18.1-.28.14-.26.12-.28.14-.33.17-.32.14-.36.17-.5.23-.24.12c-.25.12-.52.24-.8.35-1.82.82-4,1.7-5.94,2.37l-96.81-65.32.61,69.69,96.81,65.32c2-.68,4.12-1.56,6-2.37l1.5-.68,0,0,.63-.3,0,0,.44-.21.18-.1.33-.15.2-.11.25-.12.2-.11.17-.08.18-.1.11-.06.11-.06,0,0c.55-.34,1.07-.7,1.58-1l.45-.35c.35-.25.69-.51,1-.79l.25-.19.23-.2c.32-.28.63-.55.93-.83l.38-.35c.41-.4.81-.8,1.19-1.21v0l.08-.09c.35-.39.69-.77,1-1.16.11-.14.21-.28.32-.41.24-.3.46-.6.68-.91l.19-.24.27-.39c.23-.34.44-.68.63-1,.08-.12.14-.25.21-.37s.23-.42.33-.64c0,0,0,0,0,0,.23-.45.45-.91.66-1.37.06-.15.12-.29.19-.43.16-.38.33-.76.49-1.15l.66-1.52.11-.22c.17-.39.35-.76.54-1.15.08-.15.15-.3.23-.44s.23-.45.36-.66.18-.33.28-.49.27-.44.42-.65l.34-.51.23-.31.52-.65.27-.31c.24-.27.48-.53.75-.79l.1-.1c.3-.29.63-.57,1-.84l.41-.33.76-.55.51-.33.91-.55.42-.22c.47-.26,1-.51,1.51-.75s1.37-.53,2.09-.77l.48-.16C1259.27,884,1260,883.81,1260.75,883.63Z"/><polygon class="cls-30" points="1660.1 810.89 1660.72 880.57 1361.13 1006.64 1360.51 936.96 1660.1 810.89"/><path class="cls-31" d="M1126.8,779.25l123.93-52.15a59.22,59.22,0,0,1,9.7,7.35c5.79,7.63-1.68,18,8,24.6,12,8.07,41.4,6.3,65.76-3.94.68-.29,1.35-.57,2-.87,22.89-10.2,32.06-24.45,20.43-32.3-7.44-5-20.25-4.7-30.69-6.63a67.92,67.92,0,0,1-15.31-4.46,54.46,54.46,0,0,1-8.36-5.45l124.09-52.21,233.71,157.7L1360.51,937l-96.69-65.24c.38-.19.79-.37,1.2-.56a115.2,115.2,0,0,1,12.77-4.68c14.41-3.17,33.92.68,46.38-4.56,15.26-6.8,12.15-22.22-6.64-34.9-19-12.82-46.83-18-62.16-11.53-9.52,4.24-9.15,10.92-12.83,16.39a28.44,28.44,0,0,1-8.58,8.19c-.46.27-2.2,1.15-4.41,2.13-1.82.82-4,1.7-5.94,2.37Z"/></g><path class="cls-13" d="M706.69,1107.58s10.26-6.65.41-18.92c-25.44-1.62-55.36-15.36-55.36-15.36-37.4-11.77-89.92-69.66-113.83-96-26.86-29.58-67.52-4.47-45.7,29.3C533,1069.79,640.34,1111.45,706.15,1109"/><path class="cls-32" d="M428.27,1401.5c15.63-73,20.31-242.12,20.31-242.12s-12.52-16.62-57.63-19.52-42.1,24.87-41.89,21.26c0,0,0,119.67,20.75,237.51C369.81,1398.63,402,1420.81,428.27,1401.5Z"/><path class="cls-33" d="M349.52,1169.41c-4.45-30.21,4.76-60.69,9.51-91.23H496.38c8.79,29.28,17.93,59.36,17.93,59.36s5.88,69.26-52.95,77.56C461.36,1215.1,358.85,1232.87,349.52,1169.41Z"/><path class="cls-2" d="M268.88,1696.65c0,58.23,106.09,105.44,237,105.44s237-47.21,237-105.44-106.09-105.44-237-105.44S268.88,1638.42,268.88,1696.65Z"/><path class="cls-23" d="M643.69,1692.84l-7.82-.46c-2.67-.41-2.65,3.79-3,3.93-8.19,3.23-15.46,5.74-18.53,5.87,0,0-14.48-1.88-16-6.26l2-26.87c16.14-1.35,33-4.47,33-4.47l35.47-5c17.06-1.78,20.16,4.39,20.16,4.39S699.39,1679.59,643.69,1692.84Z"/><path class="cls-34" d="M622.17,1691.25a42.55,42.55,0,0,1,9.17-3c17.49-3.06,34.61-4.8,49.17-16,3.55-2.75,6.06-6.16,6.32-10.24a6.39,6.39,0,0,1,2.11,2s10.45,15.6-45.25,28.85l-7.82-.46c-2.67-.41-2.65,3.79-3,3.93-8.19,3.23-15.46,5.74-18.53,5.87,0,0-14.48-1.88-16-6.26l.5-6.55C604.56,1692.68,614.73,1694.69,622.17,1691.25Z"/><path class="cls-23" d="M406.79,1686.19l-7.83-.46c-2.67-.41-2.65,3.78-3,3.93-8.18,3.22-15.45,5.74-18.53,5.87,0,0-14.47-1.88-16-6.27l2-26.86c16.14-1.36,33-4.47,33-4.47l35.46-5c17.07-1.78,20.17,4.4,20.17,4.4S462.49,1672.94,406.79,1686.19Z"/><path class="cls-34" d="M385.26,1684.6a42.19,42.19,0,0,1,9.17-3c17.5-3.06,34.61-4.8,49.17-16,3.56-2.74,6.07-6.15,6.32-10.23a6.37,6.37,0,0,1,2.12,2s10.45,15.6-45.25,28.85l-7.83-.46c-2.67-.41-2.65,3.78-3,3.93-8.18,3.22-15.45,5.74-18.53,5.87,0,0-14.47-1.88-16-6.27l.49-6.54C367.65,1686,377.83,1688,385.26,1684.6Z"/><path class="cls-32" d="M403.79,1664.36c5.81-6.93,24.87-261.63,24.87-261.63,3.16-39.15-62-22.71-62-22.71-9.48,39-7.94,46.31-10.92,94.68-1.18,19.1,1.86,177.33,1.16,189.5C357,1664.2,387.16,1684.22,403.79,1664.36Z"/><path class="cls-35" d="M453.73,1113.59s39.09,66.55,15,110.07-125.42-3.85-119.19-54.23C356.42,1114.16,406.48,1090.24,453.73,1113.59Z"/><path class="cls-7" d="M481.77,1028.73c6.35,22.6,32.54,108.81,32.54,108.81-71.77,67.68-164.4,14-165.34,3.79-1.12-12.25,12.55-59,15-109.45C364,1031.88,389.56,992.51,481.77,1028.73Z"/><path class="cls-35" d="M568.13,1388.86c-7.62-74.28-60.53-263.76-60.53-263.76s-15.47-14.24-59.27-3.12-48.66,68.31-49.57,64.81c0,0,51,119.93,118.79,225.6C517.55,1412.39,550.32,1429.16,568.13,1388.86Z"/><path class="cls-35" d="M634.22,1661.53c-1.29-9-67.34-275.09-67.34-275.09-15.55-32.82-60.21,1.74-60.21,1.74.16,23.82.79,52.55,16.18,98.5,6.07,18.15,62.23,182.51,66.13,194C589,1680.73,622.17,1691.25,634.22,1661.53Z"/><path class="cls-5" d="M312.28,856.25s-7.1,119.54-2.57,167.79c0,0,0,21.93,38.62,32.92,0,0,14.05-133.08,25.49-192.5C373.82,864.46,351,820.4,312.28,856.25Z"/><path class="cls-5" d="M355.41,887.12a31.25,31.25,0,0,1-40.92-16.29A30.85,30.85,0,0,1,331,830.25a31.29,31.29,0,0,1,40.92,16.3A30.83,30.83,0,0,1,355.41,887.12Z"/><path class="cls-36" d="M339.21,822.42S311,829,309.47,861.69L304.9,979.51s28.2,18.73,64.74,15.54C369.64,995.05,411.79,837.71,339.21,822.42Z"/><path class="cls-7" d="M445.81,747.62s.25,42.08,3.92,84l-55.51-9.19s8.13-19.14-3.31-36.26Z"/><path class="cls-7" d="M339.21,822.42c-13.94,10.19-15.54,34.55-10.57,49.76,5.72,17.48,8,39.78,13.71,65.05,7.76,34.25,13,60.63,21.65,94.65,7.16,28.12,120.19,5.46,120.19,5.46L524.71,898.9s7-36.14-25.77-48.17c0,0-34.48-18.62-59.73-27.18-22.3-7.55-30.38-8.25-53.27-6.84C385.94,816.71,355.27,817.83,339.21,822.42Z"/><path class="cls-35" d="M504.82,1110.13s24.06,38.82,0,82.33-97.5,27.65-97.72-28.71C406.89,1108.07,457.57,1086.78,504.82,1110.13Z"/><path class="cls-36" d="M385.94,816.71s-30.67,1.12-46.73,5.71c-14.5,10.6-14.25,31.42-11.45,47.17,5.35,30.12,10.78,60.55,13.57,91,1.24,13.5,4.61,41,5.61,54.49,1,13.12,5.13,20.35,18.55,27.28,10.2,5.26,17.78,1.08,28.9,1.38,28.26.77,56.17-2.32,84.17-5.79,1.19-.14,44.9,29.35,30.52,7.65L524.71,898.9s7-36.14-25.77-48.17c0,0-23-14.42-48.27-23C450.67,827.76,406.76,828.88,385.94,816.71Z"/><path class="cls-13" d="M464.48,796.22l2.37-9.14,5.62-33.7a33.91,33.91,0,0,0-1.05-13.87c-1.33-4.5-2.38-9.25-1.73-14.22,3.22-24.14-10.3-36.13-10.3-36.13-15.73-20.67-48.45-17.78-48.46-17.78-17,2.57-31.8,9.59-40.24,25.07-7.66,14-11.83,31.16-7.28,46.83,5,17.18,14.61,30.6,27.35,42.79,8.15,7.8,16.48,8.75,27.15,12.66,7.43,2.71,21.65,4.3,29.55,4.35C451.6,803.09,463.12,801.47,464.48,796.22Z"/><path class="cls-37" d="M458,703.15l-5.22,20.92c-5.95,2.61-8.33,4.91-7.52,12.74l1.89,17.28-4.7,1.8c.39-6.92-9.21-7-9.21-7-7-.4-8.21,5.58-7.81,11.34,1,14.95-4.4,38.69-16.93,42.87-4.95,1.65-14.28,3.37-15.85-3.34-1.91-8.2-17.44-24.48-17.44-24.48-18.66-18.06-23.33-48.9-14.52-72.45a57,57,0,0,1,13.4-19.8c11.63-11.12,26.28-16.6,41.71-18.61,0,0,21.27-2.59,33.23,5.8,7.4,5.21,12.27,10,15.43,14.12C464.48,684.32,469,693.93,458,703.15Z"/><path class="cls-13" d="M440.88,770.56a8.62,8.62,0,0,1-5.46,2.06c-6.21.3-11.73-5.18-12.33-12.24s4-13,10.16-13.32a11,11,0,0,1,7.92,3c3.18,2.93,3.64,8.68,3.18,12.69C444,766,442.92,768.78,440.88,770.56Z"/><path class="cls-14" d="M436.18,753.48c-.61-3.69-7.88.33-6.62,2.35a11.36,11.36,0,0,0,3.2,2.73,5.48,5.48,0,0,1,2.56,3.9c0,.23.12.86-.09,1-.92.74-4.33-2.69-5.08-3.4a6.25,6.25,0,0,1-1.29-5.88,3.74,3.74,0,0,1,3.95-3c1.69,0,3.42,0,3.45,2.1,0,0-.06.4-.08.21Z"/><path class="cls-14" d="M434,757.48c.73-.84,1.52-.23,2.35.3a3.46,3.46,0,0,1,1.48,2.1,8.69,8.69,0,0,1-.53,6.24,4.7,4.7,0,0,1-3.9,2.41c-2.26.07-3.06-1.88-3.27-3.79,0-.5-.18-1.72.31-2.06s1,.44,1.34.78a3.17,3.17,0,0,0,2,.59,4.05,4.05,0,0,0,3.27-1.71,2.25,2.25,0,0,0,.3-.6c.08,1.25,0,1.53-.15.85a3.1,3.1,0,0,0-.48-.85c-.58-.83-1.5-1.37-2.14-2.16-.29-.36-.91-1.67-.54-2.1Z"/><path class="cls-7" d="M745.89,1094.87c-2.88-4.26-.36-6.48-6.19-6.67-6.63-.22-12.57-3.49-17.07-3.37-7.84.22-37.46,7.13-17.59,24.08,4.63,4,17.87,21.65,27,16.41,13.54-7.76,8.94-4.9,15.82-21.74Z"/><path class="cls-7" d="M469.7,877.41a34.75,34.75,0,1,0,48-10.46A34.76,34.76,0,0,0,469.7,877.41Z"/><path class="cls-36" d="M513.28,1006.21c4.51,47.39,7.42,163.45,7.42,163.45-16.82,44.89-177.26,7-178.19-3.22-1.12-12.25,2.17-98.5,4.65-148.94C347.16,1017.5,421.07,970,513.28,1006.21Z"/><path class="cls-36" d="M491.44,846.79c42.26,11.9,47.51,63,47.51,63l19.08,84s-48,38.07-77.28,27.36c0,0-23.84-63.4-31.32-126.59C449.43,894.59,449.73,848.17,491.44,846.79Z"/><path class="cls-37" d="M467,702.67c-4.78,3.85-10.85,1.32-16.31.06-7.44,8.73,1.46,17.45-9.81,21.68-6,2.24-14.8,2.88-21.41,4-5.28.85-10.62-.37-14.4,3.58-4.09,4.27-.21,17.57-5,20.11-8.44,4.46-15.07-18.66-25.83-16.83-9.19,1.56-10.82,16.14-7.6,23.31a11.68,11.68,0,0,0-2.4-1.64c-4.38-11.41-10-11.61-14.8-19.73-7.49-12.58-6.22-9.58-7.71-21.66,0-.11,1.47-5.29,1.49-5.36,3.51-12.86,9.52-15,12.41-20.51,3-5.76,7.75-9.8,11.65-14.87,3.6-4.68,5.41-11,9.54-15.15,6.28-6.35,16.56-9.53,25.19-10.66,9.3-1.23,18.14,4.54,27.36,2.93,3.78-.67,7.31-4.1,11.1-3.88,4.63.26,7.83,4.84,11.83,6.64,7.43,3.34,19.13,2,25.48,7.22,7,5.78,5.51,14.14,1.19,21.22-2.43,4-7.34,6.26-9.52,10.37C468.81,694.59,467.17,702.55,467,702.67Z"/><path class="cls-7" d="M1772.6,668.9s-38.51,67.36-68.95,143.31c0,0,.56,14.45,11.2,10s96.51-126.08,96.6-137.15C1811.67,656.58,1772.6,668.9,1772.6,668.9Z"/><path class="cls-7" d="M1683.11,841.12l9.27-3.15s-15.7,9.67-22.92,5.83c0,0-1.68-.44-.11-3.09,0,0,14.94-5.19,21-9.16,0,0-13.82,8.23-24.78,10.46,0,0-5-1.45-1.29-5.32-3.79-.26-1.59-3.39-1.59-3.39a62,62,0,0,1,8.95-7.07,254.12,254.12,0,0,0,20.48-16.3s-11.85-3.4-9.76-9.73l17.67,3.3,16.48,4.58,4.71,8.74L1710,831.19s-12.17,9.89-20,12.6C1690,843.79,1667.2,850,1683.11,841.12Z"/><g class="cls-16"><path class="cls-38" d="M1294.91,1073.46c0-3.07,1.63-5.86,5-8.11a16.39,16.39,0,0,1,1.68-1l.56-.28,1.28-.58c.11,0,.21-.1.33-.14l.3-.1c.7-.27,1.41-.52,2.16-.74h0c.75-.22,1.54-.41,2.33-.59l.28-.07.35-.07c.93-.2,1.87-.38,2.84-.55h.09l.31,0c1-.15,1.93-.29,2.92-.42l.38,0c1.06-.14,2.13-.26,3.2-.39l.19,0,.72-.08,2.16-.25c1-.11,2-.24,3-.36l.6-.08c1-.13,2-.27,2.93-.43l1.53-.25c1-.2,2.07-.41,3.11-.64l.59-.13c.74-.16,1.48-.34,2.22-.53h.07c.75-.19,1.49-.4,2.22-.61l.68-.2,1.51-.48.74-.25c.5-.17,1-.35,1.47-.53l.6-.23c.64-.26,1.26-.52,1.85-.79a51.48,51.48,0,0,0,8.23-5.36l-.6,68.55a52,52,0,0,1-8.22,5.36c-.6.28-1.23.54-1.87.8a.84.84,0,0,0-.14.06l-.42.15c-.49.19-1,.37-1.51.55l-.72.24c-.5.17-1,.32-1.51.48l-.46.14-.24.06c-.73.22-1.46.42-2.2.61l-.1,0c-.73.19-1.46.36-2.2.53l-.24.06-.36.07c-1,.22-2.07.44-3.1.62l-1.28.23-.27,0c-1,.16-1.92.3-2.89.42l-.66.09-2.9.35h-.08l-2.06.24-1,.11c-1.06.12-2.11.25-3.16.39l-.38,0c-1,.13-2,.27-2.93.43l-.39.06c-1,.17-1.92.35-2.85.55l-.61.13c-.8.19-1.59.38-2.35.61h0q-1.12.33-2.19.75l-.62.24c-.44.18-.86.37-1.28.58-.19.09-.38.17-.56.27-.58.31-1.15.63-1.68,1-3.34,2.26-4.93,5-5,8.11Z"/><path class="cls-38" d="M1027.17,1138.07l-.09-.39c0-.12,0-.24-.07-.36s0-.08,0-.12a5,5,0,0,1-.06-.54c0-.14,0-.27,0-.41s0-.38,0-.58,0-.21,0-.32v-.14l.61-68.56c0,.16,0,.31,0,.47s0,.39,0,.58,0,.27,0,.4,0,.36.07.55a4.3,4.3,0,0,0,.09.47c0,.14,0,.26.08.4s.09.32.13.48l.11.38a1.07,1.07,0,0,1,.07.19,11.92,11.92,0,0,0,.59,1.38v0a11.71,11.71,0,0,0,.76,1.26l.13.2a14.18,14.18,0,0,0,.93,1.15l.29.31.33.33.39.37c.11.11.23.21.36.32l.35.29c.21.17.43.33.66.49a2.8,2.8,0,0,0,.35.25c.26.18.52.35.79.51l.31.19q.36.22.75.42l.34.19c.38.19.77.38,1.18.56.78.33,1.59.62,2.42.89.27.09.56.16.85.24.56.16,1.12.33,1.71.47l.46.1c.66.15,1.33.28,2,.4l.82.13c.63.11,1.27.2,1.91.28l.64.07c.83.1,1.68.19,2.54.25.53,0,1.08.08,1.62.11l1.37.08c.55,0,1.11.05,1.67.07l1.35,0c1.07,0,2.14,0,3.23.06h.08l3.82,0,2.43,0,1.2,0,2.07,0,.52,0c.31,0,.6,0,.9,0l1.56.06,1.46.08,1.5.09.51,0h0c.56,0,1.11.1,1.66.16l.34,0c.72.08,1.44.16,2.14.27l.25,0c1,.15,2.08.33,3.09.55l.09,0,.1,0,.14,0,.22.06.18,0,.28.09.22.07.36.12.23.07.43.14.26.08.48.16.27.1.53.18.3.1.53.19.35.12.51.18.42.16.5.18.44.16.51.19.46.17.51.2.45.18.52.19.45.19.51.2.44.19.54.22.39.17c.3.13.6.25.89.39s.84.37,1.23.56l-.6,68.55-1.23-.56-.89-.39-.3-.12c-.21-.1-.42-.18-.63-.27l-.37-.15-.58-.24-.41-.16-.56-.22-.43-.16-.54-.21-.45-.17-.51-.2-.43-.16-.52-.18-.41-.15-.5-.18-.44-.16-.42-.14a3.81,3.81,0,0,0-.44-.15l-.39-.14-.38-.13-.38-.12-.34-.12-.35-.11-.3-.1-.29-.09-.27-.08-.24-.08-.21-.06-.2-.06-.14,0-.19-.05c-1-.23-2-.4-3.1-.56-.78-.12-1.57-.23-2.37-.31l-.4,0c-.7-.07-1.41-.14-2.13-.19l-1.49-.1-1.47-.08-1.53-.06-1.46,0-2,0-1.26,0-2.4,0-3.15,0h-.79l-3.18-.07h-.16l-1.31,0-1.58-.06-1.41-.09-1.57-.1h-.17c-.8-.07-1.6-.15-2.39-.24l-.59-.07-1.19-.15v0h0v0l-.76-.13-.8-.14c-.68-.11-1.34-.25-2-.4l-.48-.1-.13,0c-.55-.14-1.07-.3-1.6-.45l-.82-.23c-.83-.27-1.64-.56-2.42-.89-.41-.18-.8-.37-1.18-.56-.13-.07-.25-.15-.38-.21l-.71-.39-.08,0-.25-.17c-.27-.15-.52-.32-.76-.48l-.37-.27c-.22-.16-.44-.32-.65-.49l-.21-.16h0l-.15-.13-.35-.31-.4-.38-.32-.32-.21-.21-.08-.1a13.89,13.89,0,0,1-.93-1.16l-.06-.07a.83.83,0,0,1-.07-.13,10.17,10.17,0,0,1-.76-1.25h0v0a11.5,11.5,0,0,1-.57-1.36.61.61,0,0,1,0-.12v0h0v0l0-.09c0-.12-.07-.24-.11-.37S1027.21,1138.24,1027.17,1138.07Z"/><polygon class="cls-39" points="1001.33 1152.87 1000.73 1221.42 1295.49 1345.45 1296.09 1276.9 1001.33 1152.87"/><polygon class="cls-38" points="1296.09 1276.9 1295.49 1345.45 1525.43 1190.3 1526.03 1121.74 1296.09 1276.9"/><path class="cls-40" d="M1526,1121.74l-122-51.31a57.93,57.93,0,0,0-9.52,7.24c-5.7,7.5,1.65,17.74-7.91,24.19-11.78,7.94-40.74,6.21-64.7-3.87-.67-.29-1.34-.57-2-.87-22.51-10-31.52-24-20.09-31.77,7.32-4.94,19.93-4.62,30.19-6.51a66.58,66.58,0,0,0,15.06-4.4,51.48,51.48,0,0,0,8.23-5.36l-122.08-51.37L1136,1062c-2-.67-4.09-1.54-5.89-2.35a47.52,47.52,0,0,1-4.29-2.09,27.9,27.9,0,0,1-8.45-8c-3.62-5.39-3.26-12-12.16-15.93-15.55-6.55-42.92-1.47-61.62,11.15-18.49,12.47-21.54,27.64-7,34.11,12.76,5.38,31.94,1.59,46.12,4.71a113.28,113.28,0,0,1,12.51,4.59c.43.18.84.37,1.23.56l-95.13,64.19,294.76,124Z"/></g><path class="cls-2" d="M1696.32,1836.88c0,41.38-75.38,74.91-168.36,74.91s-168.36-33.53-168.36-74.91S1435,1762,1528,1762,1696.32,1795.51,1696.32,1836.88Z"/><path class="cls-5" d="M1442.62,1834.6s-17.85-3.27-12.83,11.3c0,0,41.7,17.91,70.82,13.87,0,0,20.46-.69,17.25-22.89l.34-18.05-27.45,5.21,1.56,17.14Z"/><path class="cls-41" d="M1517.86,1836.88a11.55,11.55,0,0,1-2.74,7.74c-7.18,8.28-21.31,8.53-31.25,7.9a337.42,337.42,0,0,1-47.56-6.65c-3.4-.72-4.35-1.83-4.38-2.83a13.84,13.84,0,0,1,10.69-8.44l-15.2-1.95c-14-.5-20.39,2.72-23.67,4.84-3.88,11.1,15,18.51,15,18.51a307.48,307.48,0,0,0,44.27,12.35s53.37,12.59,59.82-3.83Z"/><path class="cls-5" d="M1548.64,1809.79s-17.86-3.26-12.83,11.3c0,0,41.69,17.91,70.81,13.88,0,0,20.47-.69,17.26-22.9l.34-18-27.45,5.19,1.56,17.15Z"/><path class="cls-41" d="M1623.88,1812.07a11.51,11.51,0,0,1-2.74,7.74c-7.18,8.29-21.31,8.54-31.25,7.9a335.76,335.76,0,0,1-47.56-6.65c-3.4-.72-4.35-1.83-4.39-2.83a13.89,13.89,0,0,1,10.7-8.44l-15.2-1.94c-14-.5-20.4,2.71-23.67,4.83-3.88,11.1,15,18.5,15,18.5a307,307,0,0,0,44.27,12.37s53.37,12.58,59.82-3.83Z"/><path class="cls-42" d="M1543.7,1327.87a51,51,0,1,0,51-51A51,51,0,0,0,1543.7,1327.87Z"/><path class="cls-42" d="M1626.73,1573.19S1626,1586,1603,1586.32c0,0-21.79,7.43-31.2-20.94-37.06-111.72-27.26-228.3-27.26-228.3s52.33-29.15,101.07-9.21C1645.62,1327.87,1637.74,1474.51,1626.73,1573.19Z"/><path class="cls-42" d="M1571.81,1565.38s18,241.46,19.63,250.09c17.52,11.12,33-.31,33-.31-.09-11.84,12.82-110.58,14.15-129.12,2.29-31.87,6.12-72.13-14-117.93Z"/><path class="cls-43" d="M1479,1580.56s-4.91,11.85-26.73,4.52c0,0-23-.2-22.5-30.08,2-117.69,53.61-239.66,53.61-239.66s58.09-5.55,97.48,29.41C1580.89,1344.75,1522.11,1491.09,1479,1580.56Z"/><path class="cls-43" d="M1484.72,1311a51,51,0,1,0,65-31.19A51,51,0,0,0,1484.72,1311Z"/><path class="cls-43" d="M1645.62,1320.45c-6.16-56.67-34.59-83-34.59-83L1512.52,1225s-27.16,47.25-30,95.41c11.77,32.12,53.74,41.48,53.74,41.48l31.87,9.46S1640.36,1360.41,1645.62,1320.45Z"/><path class="cls-43" d="M1434.35,1578.44s48.86,253.65,51.8,261.93c-1.29-.62,23.09,11.2,33.89-4.06-1.84-11.7-2.87-140.54-4.3-159.08-2.45-31.86-2.11-61.59-28.8-103.9C1486.94,1573.33,1420.23,1525.58,1434.35,1578.44Z"/><path class="cls-5" d="M1652.91,1134.32s-18,21.13-53.64,72.15l6.17,10.45s61.13-30.79,80.63-65.36Z"/><path class="cls-5" d="M1602.38,1058.71s46,100.41,73.66,96.59c0,0,9.53.6,11.44-6.59,0,0,19.52-17.31-61.64-142.17,0,0-7.92-10.6-24.17-7.86C1601.67,998.68,1577,1015,1602.38,1058.71Z"/><rect class="cls-44" x="1527.96" y="980.11" width="49.74" height="52.87"/><path class="cls-7" d="M1497.19,981.31l-1.87-8.45-3.72-31a28,28,0,0,1,1.84-12.57c1.58-4,2.92-8.3,2.53-12.86-1.86-22.15,12.4-32.37,12.4-32.37,17-18,49.69-13.7,49.7-13.7,16.9,3.21,31.39,10.36,39,24.9,6.9,13.17,10.11,29,4.66,43-6,15.39-16.41,27.11-29.9,37.55-8.63,6.68-17.06,7.13-28,10.13-7.62,2.09-22,2.81-29.93,2.45C1509.74,988.23,1498.26,986.16,1497.19,981.31Z"/><path class="cls-45" d="M1519.84,952.65c2.46-3.48,11.39-5.63,11.4-5.63,10.8,0,9.39,14.42,10.4,20.66.34,2,.73,4.12,1.19,6.2,5.14,18.32,20.55,18.16,33.71,20.38.49-.29,1-.58,1.54-.87,2.38-8.12,10-16.56,10-16.56,19.77-17.09,26.22-47.81,18.69-72a57.06,57.06,0,0,0-12.33-20.63c-11.06-11.84-25.46-18.17-40.86-21.07s-70,4.55-55.11,37.8c0,0,22.53,26,21.41,51.7"/><path class="cls-46" d="M1519.84,952.65c2-4.94,6.77-8.74,12.19-7.13a8.16,8.16,0,0,1,6,8.79c-.08.89-.28,1.77-.37,2.65-1.56,9.49-11.56,13.11-11.56,13.11"/><path class="cls-47" d="M1531,950a5.68,5.68,0,0,0-2.4-.65c-3.63-.23-6.55,5.36-2.92,6.36,1.36,1.33,0,2.87,0,2.87-1.25,1.36-2.93,3.31-2.55,5.22.23,1.13,1.49,1.74,2.62,2,.92.23,1.09-.49.37-.83a4.13,4.13,0,0,1-1.38-1.13,2,2,0,0,0-.11-.2.32.32,0,0,1-.08-.14,1.19,1.19,0,0,1,0-.83,2.24,2.24,0,0,0,2.81,0c.69-.83.17-2.12.4-3.07a7,7,0,0,1,.84-1.88c1.66-2.77-1.33-3.24-1.33-3.24a9.86,9.86,0,0,0-1.11.08c-1.52-.78.18-3.07,1.11-3.43a2.93,2.93,0,0,1,3.16.55,4.55,4.55,0,0,1,1,3.21,10.74,10.74,0,0,1-1,3.83c-.33.69-.75,1.49-1.08,2.18s.53,1.12.91.33c.79-1.64,2.27-4,2.59-6.31A4.82,4.82,0,0,0,1531,950Z"/><path class="cls-47" d="M1519.84,952.65s.44-.62,1.14-1.74a13.78,13.78,0,0,1,1.51-1.73,11.9,11.9,0,0,1,2.29-1.79,9.7,9.7,0,0,1,3.1-1.12,7.8,7.8,0,0,1,3.54.25,8.84,8.84,0,0,1,1.8.76,8.61,8.61,0,0,1,1.43,1.09,6.89,6.89,0,0,1,1.89,3.22,9.75,9.75,0,0,1,.06,4l-.14,1.09v.14h0c0-.06,0,.16,0-.13v.1l0,.27-.11.53a11.33,11.33,0,0,1-.52,1.92,15,15,0,0,1-1.68,3.35,18.87,18.87,0,0,1-2.18,2.7,24.1,24.1,0,0,1-4.09,3.4c-1.09.72-1.76,1.09-1.76,1.09a13.62,13.62,0,0,0,2-.66,20.55,20.55,0,0,0,4.83-2.76,16.51,16.51,0,0,0,2.71-2.66,14,14,0,0,0,2.25-3.69,12.91,12.91,0,0,0,.72-2.18l.14-.52.07-.27,0-.07,0-.21,0-.14.16-1.09a12,12,0,0,0,0-4.87,9.35,9.35,0,0,0-2.66-4.34,12.37,12.37,0,0,0-1-.8l-1.14-.64a9.9,9.9,0,0,0-2.19-.77,8.92,8.92,0,0,0-4.48.06,10,10,0,0,0-5.71,4.13,14.49,14.49,0,0,0-1.23,2.11C1520.08,951.93,1519.84,952.65,1519.84,952.65Z"/><path class="cls-1" d="M1526.06,967.75a3,3,0,1,1-3-3A3,3,0,0,1,1526.06,967.75Z"/><path class="cls-48" d="M1523.77,969.35a2.37,2.37,0,0,1-.73-4.62h0a3,3,0,1,0,3,3c0-.08,0-.15,0-.22A2.35,2.35,0,0,1,1523.77,969.35Z"/><path class="cls-41" d="M1657.59,1261.11l-54.92-78.8c-2.56-11.58,3.21-34.62,3.21-34.62l17.56-120.75c-2.08-13.83-3-31.4-21.77-28.26-13.21,2.21-15.82,4.06-24,6.68,2.38,11.21-17,18.41-17,18.41-26.62,11.5-32.78,3.93-32.78,3.93-7.09,3.83-31,15.8-37.26,20.92-6.47,5.31-10.37,13.59-8.34,27.52l19.16,114.45-3.37,28.43-35,88.74a75.2,75.2,0,0,1,34.1-4.07c10.88,1.3,20.26,7.72,31.07,8.92,16.34,1.8,28.46-4.1,40.79-11.91a196.64,196.64,0,0,0,47.2-16.59h1c12.22.07,26.05-.14,35.07-9.71C1654.31,1272.38,1659.9,1264.43,1657.59,1261.11Z"/><path class="cls-7" d="M1468.07,1231.82l.32-139c3.38-38.09,22.31-44.17,22.31-44.17,38.24-4.49,32.34,66.38,32.34,66.38l-16,119.77"/><path class="cls-7" d="M1346.34,1307.83c17.54-9.39,19.11-12.42,22.2-16.83,13.34-19-13.62-18.35-20.4-16.81-3.9.89-4.14,10.15-16.22,21.45,0,0-19,11-23.66,10.24,0,0-4.87.7-4.87,4.2C1303.39,1310.08,1316.72,1318,1346.34,1307.83Z"/><path class="cls-7" d="M1471,1217.17l-119.08,65.17c-5.15,14.33,1.47,16.39,1.47,16.39l92.19-26.52c39.35-10.54,55-27.06,55-27.06s17.21-11.92-4.75-29.68C1495.73,1215.47,1485.73,1207.56,1471,1217.17Z"/><path class="cls-45" d="M1509.27,944.14c3.09,23.06-.39,53.57,11.1,78.78,5.11,11.21,10.75,16.77,7.69,29.79-2.51,10.65-7.55,20.7-10.28,31.73-6,24.34,2.17,48.12,30.54,39.31,13.6-4.23,15.12-4.16,27.51.64,10.4,4,20.18,5.16,30.52.13,16-7.82,11.21-19.62,20.2-31.45,6.84-9,16.52-8.78,21.68-20.89,6.23-14.62-1.19-22.42-8.77-34.82-7.9-12.92-9.17-21.42-6.57-37,2.19-13.09-1.05-19.7-5.38-31.74-4.44-12.33-2.5-23.07-4.61-35.43-4.16-24.45-17.52-57.63-43.13-64.8-12.55-3.51-28.77-6.26-40.85-1.83-16.45,6-34.76,12.46-34.05,32.69C1505.6,920.06,1506.53,923.6,1509.27,944.14Z"/><path class="cls-7" d="M1351.32,1273.71s3.34,9.76-8.81,7.37l-11.9-9.06s-3.69-2-2.38-5.51c0,0,1.42-2,5.22,0Z"/><path class="cls-49" d="M1621.61,183.94a41.12,41.12,0,1,1-41.11-41.11A41.11,41.11,0,0,1,1621.61,183.94Z"/><path class="cls-49" d="M339.42,1911.79a41.12,41.12,0,1,1-41.12-41.12A41.12,41.12,0,0,1,339.42,1911.79Z"/><path class="cls-50" d="M298.3,496.83a29.43,29.43,0,1,1-29.42-29.42A29.42,29.42,0,0,1,298.3,496.83Z"/><path class="cls-50" d="M1993.73,717.73a29.43,29.43,0,1,1-29.43-29.42A29.43,29.43,0,0,1,1993.73,717.73Z"/><circle class="cls-51" cx="1150.35" cy="433.91" r="29.43" transform="translate(30.11 940.51) rotate(-45)"/><path class="cls-52" d="M174.4,1115.24A29.43,29.43,0,1,1,145,1085.82,29.43,29.43,0,0,1,174.4,1115.24Z"/><path class="cls-52" d="M2017.3,1308.77a29.43,29.43,0,1,1-29.43-29.43A29.43,29.43,0,0,1,2017.3,1308.77Z"/><path class="cls-36" d="M959,126.21a29.43,29.43,0,1,1-29.42-29.42A29.42,29.42,0,0,1,959,126.21Z"/><path class="cls-36" d="M1881.31,1765.23a29.43,29.43,0,1,1-29.43-29.42A29.43,29.43,0,0,1,1881.31,1765.23Z"/><line class="cls-53" x1="68.9" y1="1344.77" x2="161.16" y2="1344.77"/><line class="cls-53" x1="174.92" y1="1344.77" x2="221.05" y2="1344.77"/><line class="cls-54" x1="1856.83" y1="1541.68" x2="1964.3" y2="1541.68"/><line class="cls-54" x1="1980.33" y1="1541.68" x2="2034.07" y2="1541.68"/><line class="cls-53" x1="990.34" y1="1891.96" x2="898.06" y2="1891.96"/><line class="cls-53" x1="884.32" y1="1891.96" x2="838.19" y2="1891.96"/><line class="cls-53" x1="1769.72" y1="295.8" x2="1808.44" y2="295.8"/><line class="cls-53" x1="1818.41" y1="295.8" x2="1851.88" y2="295.8"/><line class="cls-53" x1="1724.78" y1="295.8" x2="1758.24" y2="295.8"/><line class="cls-53" x1="1896.32" y1="946.89" x2="2032.28" y2="946.89"/><line class="cls-53" x1="1190.53" y1="256.37" x2="1203.39" y2="269.23"/><line class="cls-53" x1="1212.46" y1="278.3" x2="1225.32" y2="291.17"/><line class="cls-53" x1="1225.32" y1="256.37" x2="1212.46" y2="269.23"/><line class="cls-53" x1="1203.39" y1="278.3" x2="1190.53" y2="291.17"/><line class="cls-53" x1="110.18" y1="689.36" x2="123.04" y2="702.22"/><line class="cls-53" x1="132.11" y1="711.3" x2="144.98" y2="724.16"/><line class="cls-53" x1="144.98" y1="689.36" x2="132.11" y2="702.22"/><line class="cls-53" x1="123.04" y1="711.3" x2="110.18" y2="724.16"/><line class="cls-53" x1="1079.06" y1="1491.51" x2="1091.92" y2="1504.38"/><line class="cls-53" x1="1101" y1="1513.45" x2="1113.86" y2="1526.31"/><line class="cls-53" x1="1113.86" y1="1491.51" x2="1101" y2="1504.38"/><line class="cls-53" x1="1091.92" y1="1513.45" x2="1079.06" y2="1526.31"/><path class="cls-53" d="M464.54,437.35a16,16,0,1,1-16-16A16,16,0,0,1,464.54,437.35Z"/><path class="cls-53" d="M1518.11,512.25a16,16,0,1,1-16-16A16,16,0,0,1,1518.11,512.25Z"/></svg>