<svg xmlns="http://www.w3.org/2000/svg" xmlns:xlink="http://www.w3.org/1999/xlink" viewBox="0 0 500 400"><defs><style>.cls-1{fill:none;}.cls-2{isolation:isolate;}.cls-3{fill:#edf2ff;}.cls-4{fill:#58857a;}.cls-5{fill:#76a699;}.cls-6{fill:#9fc7bd;}.cls-7{fill:#fff;}.cls-8{fill:#eee4d9;}.cls-9{fill:#444244;}.cls-10{fill:#bec0c2;}.cls-11,.cls-45{fill:#9ebfd8;}.cls-12{fill:#cc882a;}.cls-13{fill:#d6723a;}.cls-14,.cls-16{opacity:0.8;}.cls-15,.cls-16{fill:#514342;}.cls-17{fill:#f59f00;}.cls-18{opacity:0.3;}.cls-19{fill:#72787a;}.cls-20{clip-path:url(#clip-path);}.cls-21{fill:#9c9fa0;}.cls-22{fill:#2f3d69;}.cls-23{fill:#4c6ef5;}.cls-24{fill:#91a7ff;}.cls-25{fill:#748ffc;}.cls-26{fill:#4263eb;}.cls-27{fill:#84534a;}.cls-28{fill:#ba3213;}.cls-29{fill:#fcbda9;}.cls-30{fill:#d1778e;}.cls-30,.cls-33,.cls-38,.cls-45{opacity:0.5;}.cls-31{fill:#637690;}.cls-32,.cls-33{fill:#3b3348;}.cls-34{fill:#d1868d;}.cls-35{fill:#f99889;}.cls-36{fill:#3f6763;}.cls-37,.cls-38{fill:#2e5151;}.cls-39{fill:#4d3930;}.cls-40{fill:#44322b;}.cls-41{fill:#382823;}.cls-42{fill:#626b6d;}.cls-43{fill:#5c7cfa;}.cls-44{fill:#e0dfea;mix-blend-mode:multiply;}</style><clipPath id="clip-path"><rect class="cls-1" x="77.6" y="205.13" width="224.22" height="162.82"/></clipPath></defs><g class="cls-2"><g id="Layer_1" data-name="Layer 1"><path class="cls-3" d="M277.3,38.75c58.53,7.86,72.59,43.19,99.38,48.7,40.06,8.25,82.88,14.54,73.45,64S416.74,213.54,425.38,256s25.9,67.58-4.32,90-65.59-2.75-117,7.85-111.55,26.71-206.6-5.1S68,268.92,64,231.61,24.84,181.49,45.3,138C90.1,42.72,236.4,33.26,277.3,38.75Z"/><path class="cls-3" d="M213.58,363.58c-34.74,0-70-6.15-107.7-18.75-27-9-43.14-20.06-49.35-33.69-7.21-15.8-.21-32.73,6.57-49.11,5.12-12.39,10-24.09,8.82-35-1.48-14.09-7.47-24.61-13.27-34.79-9.36-16.46-18.2-32-5.38-59.28C63.72,110.78,80.43,91.67,103,76.18c19-13,41.93-23.47,68.31-31.05C218.75,31.49,266,30.56,286.16,33.27c35.95,4.83,55.32,20,70.89,32.24,9.82,7.71,18.3,14.37,28.54,16.48l5.39,1.1c38.29,7.77,77.89,15.81,68.73,63.91-3.81,20-10,34-15.43,46.34-8.06,18.29-14.43,32.73-9.32,57.81,1.91,9.4,4.3,18.12,6.4,25.82,7.51,27.42,12.93,47.24-11.05,65-17,12.62-35.8,10.37-57.51,7.76-17.39-2.08-37.09-4.45-59.87.25l-9.74,2c-24.23,5.11-51.69,10.89-83.67,11.53Q216.55,363.58,213.58,363.58ZM263.72,33.74a346.51,346.51,0,0,0-92,13c-40.11,11.53-92.95,36-116.93,87-12.45,26.47-4.22,40.95,5.32,57.71,5.88,10.33,12,21,13.48,35.45,1.19,11.31-3.73,23.21-8.94,35.8-6.64,16-13.5,32.62-6.6,47.75,6,13.18,21.83,23.91,48.35,32.78,88.9,29.76,146,17.73,196.42,7.12l9.74-2c23.06-4.75,42.91-2.37,60.42-.26,21.35,2.56,39.8,4.77,56.3-7.44,23-17.06,18-35.4,10.42-63.17-2.11-7.73-4.5-16.48-6.43-25.93-5.21-25.61,1.25-40.27,9.44-58.83,5.4-12.26,11.53-26.16,15.31-46,4-21.11-1-35.54-15.89-45.4-13.2-8.75-32.68-12.71-51.51-16.53l-5.39-1.1c-10.63-2.19-19.26-9-29.25-16.8C340.6,54.76,321.43,39.72,285.93,35A174.54,174.54,0,0,0,263.72,33.74Z"/><path class="cls-4" d="M295.46,234.69l-.73-.18c14.46-58.08,28-92,45.18-113.33l.59.47C323.36,142.92,309.9,176.72,295.46,234.69Z"/><path class="cls-4" d="M332,132.51c.77-6,5.78-19.88,12.93-18.92s-.95,11.08-6.72,15C334.35,131.16,332,132.51,332,132.51Z"/><path class="cls-4" d="M325.59,143.67c3-5.4,8.76-10.45,16.09-10.69,4.3-.14,5.79,8.21-4.38,8.16C329.82,141.11,325.59,143.67,325.59,143.67Z"/><path class="cls-4" d="M325.92,143.14c2.85-12.13-.61-21.11-5.94-20.06s-2.25,8.72,1.09,11.68S325.92,143.14,325.92,143.14Z"/><path class="cls-4" d="M319.45,156.56c6.52-9.39,14.35-10.47,17.89-8.36s2.71,8.87-4.7,7.58A26.27,26.27,0,0,0,319.45,156.56Z"/><path class="cls-4" d="M313.55,171.52c12.67-12.53,23.5-7.4,22.61-3.4S329,171,323.83,170.38A26.35,26.35,0,0,0,313.55,171.52Z"/><path class="cls-4" d="M308.4,186.66c13.34-13.59,25.4-11,26.42-6s-3,5.92-12.63,3.59S308.4,186.66,308.4,186.66Z"/><path class="cls-4" d="M319.61,156.25c2.47-17.38-8.37-21.94-12.11-17.2s6.57,7.95,8.65,11.75A38.21,38.21,0,0,0,319.61,156.25Z"/><path class="cls-4" d="M314,170.43c.3-8.93-4.17-19.9-10.43-19.92s-5.57,6.76-.83,9.06C309.83,163,314,170.43,314,170.43Z"/><path class="cls-4" d="M303.28,204.22c4.92-8.11,20.47-14.07,26.59-8.34s-3,9.29-10.62,7.2S303.28,204.22,303.28,204.22Z"/><path class="cls-4" d="M297.7,224.22c8.1-13.35,24.93-13.92,31.4-7.28s-5.2,9-15,5.1A16.05,16.05,0,0,0,297.7,224.22Z"/><path class="cls-4" d="M308.69,184.67c-3.22-18.85-14.64-20.47-17.49-15.86S308.69,184.67,308.69,184.67Z"/><path class="cls-4" d="M302.76,204c1-14.13-10.85-24.4-17-20.42s6.26,8.88,9.65,11.88A64,64,0,0,1,302.76,204Z"/><path class="cls-4" d="M297.65,224.19c-3.67-14.47-17.58-29-22.58-22.06-4.42,6.14,2.67,8.79,14.19,12.37C295.63,216.48,297.65,224.19,297.65,224.19Z"/><path class="cls-5" d="M297.86,237.26l-.68-.34c15.6-31.35,28.95-52.6,42-66.89,12.25-13.41,24.94-21.59,41.14-26.52l.22.73C348.48,154,327.61,177.47,297.86,237.26Z"/><path class="cls-5" d="M367.76,148.62c8.77-10.81,18.49-11.42,19.13-6C387.78,150.26,367.76,148.62,367.76,148.62Z"/><path class="cls-5" d="M356.88,154.78c14.55-1.3,21.85,2.47,21.6,6.79s-4.06,4.47-11.7-.35S356.88,154.78,356.88,154.78Z"/><path class="cls-5" d="M358.18,153.91c5.16-7.58,5.62-18.61-2.18-18.52s1,9.83,1.83,12.84A14.73,14.73,0,0,1,358.18,153.91Z"/><path class="cls-5" d="M343.69,165.88c13.56-6.93,27.78-1.82,25.36,5.87s-9-1.79-14.42-3.56A57.63,57.63,0,0,0,343.69,165.88Z"/><path class="cls-5" d="M338.65,144.75c6.73-2.46,13.52,9.91,5.71,20.41,0,0,.72-6.54-5.77-11.63S335.8,145.79,338.65,144.75Z"/><path class="cls-5" d="M328.12,184.24c7.69-10.57,21.55-9.41,26.44-3.94s-.19,9-4.23,8.77S343,184.22,337,183.93A40.19,40.19,0,0,0,328.12,184.24Z"/><path class="cls-5" d="M331.36,179.49c4.33-12.35-.15-22.27-8.21-20.28s4.07,8.6,5.89,12.77A33,33,0,0,1,331.36,179.49Z"/><path class="cls-5" d="M317.75,199.6c21-11.57,31-2,28.35,3.62s-12.6-1.21-16.6-2.86C324.42,198.27,317.75,199.6,317.75,199.6Z"/><path class="cls-5" d="M307.27,218.31c28.09-21,47.51,8.79,17.78,1.46A52.61,52.61,0,0,0,307.27,218.31Z"/><path class="cls-5" d="M310.28,212.74c.33-13-12.08-25.57-17.46-18.13s10.95,10.75,13.56,13.88A39.93,39.93,0,0,0,310.28,212.74Z"/><path class="cls-5" d="M317.75,199.6c3.95-4.53,3.88-23.26-6.25-25.3s-3.91,10.95.07,15.54A41.64,41.64,0,0,1,317.75,199.6Z"/><path class="cls-5" d="M300.06,232.63c16.11-11.13,26.83,8.19,8.34.51A12.8,12.8,0,0,0,300.06,232.63Z"/><path class="cls-5" d="M301.78,228.57c1.82-9.35-5.79-17.83-11-13s9.1,7.92,10.2,10.54S301.78,228.57,301.78,228.57Z"/><path class="cls-6" d="M293.63,233.72l-.76-.07c1.67-19.21-3.65-61.09-35.71-82.06l.41-.64C289.93,172.12,295.31,214.35,293.63,233.72Z"/><path class="cls-4" d="M313.8,238.54l-.41-.64c24-15.19,55.64-10.61,55.95-10.56l-.11.75C368.91,228,337.58,223.5,313.8,238.54Z"/><path class="cls-4" d="M354.31,227c9.72-4.61,15.58-5.3,19-.16s-4.81,5.85-10.29,3.75S354.31,227,354.31,227Z"/><path class="cls-4" d="M338.28,228.66c15.57.94,24.65,8.42,22.39,15.67s-8.59-6-12.65-9.84A31.53,31.53,0,0,0,338.28,228.66Z"/><path class="cls-4" d="M324.53,232.55c12.05.38,22.87,10.11,22.92,15.53s-10.35,5.71-15.08-3.14S324.53,232.55,324.53,232.55Z"/><path class="cls-4" d="M339.67,228.52c10.34-3,9.12-13.27,4.7-17.42s-8-1.66-6.31,4.21c1.1,3.74,4.72,5.91,3.2,10.07A10.55,10.55,0,0,1,339.67,228.52Z"/><path class="cls-4" d="M324.65,232.64c5.88-3.35,9-19.08,0-23.27-8.23-3.82-10.82,3.5-3.66,10.83C325.65,225,324.65,232.64,324.65,232.64Z"/><path class="cls-6" d="M264.07,156.49c-2.36-4.5-12.24-14.28-12.92-8.78S264.07,156.49,264.07,156.49Z"/><path class="cls-6" d="M274.22,166.58c-4-4.42-7.82-19,.45-16.88S274.22,166.58,274.22,166.58Z"/><path class="cls-6" d="M274.22,166.58c-10.24-3.57-21.47-7.13-19.67-.31S274.22,166.58,274.22,166.58Z"/><path class="cls-6" d="M282.12,178.93c-2.06-13,5.15-21,11-16.63S282.12,178.93,282.12,178.93Z"/><path class="cls-6" d="M284.26,183.56c-5.93-5.5-19.89-12-22.18-4.65S284.26,183.56,284.26,183.56Z"/><path class="cls-6" d="M287.81,192.71c5.15-12.52,10.75-19.52,15.43-15.14S287.81,192.71,287.81,192.71Z"/><path class="cls-6" d="M288.33,194.63c-8.68-4.93-23.71-9.7-24.12-2.44S288.33,194.63,288.33,194.63Z"/><path class="cls-6" d="M291.9,207.78c1.89-12,13.64-20.69,17-13.6S291.9,207.78,291.9,207.78Z"/><path class="cls-6" d="M291.7,209c-10.67-4.12-28.08-10.93-26.52-1.88S291.7,209,291.7,209Z"/><path class="cls-6" d="M293,216.65c4-6.7,19.19-12.09,21.6-4.22S293,216.65,293,216.65Z"/><path class="cls-6" d="M293.24,223.43c-1.45-2.8-18-12.09-19.86-5.57S293.24,223.43,293.24,223.43Z"/><path class="cls-4" d="M205.18,251.9C199.4,192.44,191,157,177.2,133.47l.66-.38c13.89,23.65,22.28,59.16,28.08,118.73Z"/><path class="cls-4" d="M184,145.45c.12-6.06-2.81-20.51-10-20.6s-.68,11.1,4.46,15.79C181.89,143.78,184,145.45,184,145.45Z"/><path class="cls-4" d="M188.72,157.44c-2.13-5.77-7.14-11.62-14.35-12.93-4.23-.77-6.92,7.27,3.14,8.71C184.92,154.29,188.72,157.44,188.72,157.44Z"/><path class="cls-4" d="M188.47,156.87c-1-12.42,3.7-20.8,8.82-19s1,8.95-2.79,11.39S188.47,156.87,188.47,156.87Z"/><path class="cls-4" d="M192.91,171.1c-5.08-10.25-12.66-12.47-16.48-10.9s-4,8.38,3.54,8.19A26.18,26.18,0,0,1,192.91,171.1Z"/><path class="cls-4" d="M196.55,186.75c-10.7-14.25-22.16-10.77-21.87-6.67s6.63,3.87,11.87,4A26.3,26.3,0,0,1,196.55,186.75Z"/><path class="cls-4" d="M199.42,202.49c-11.2-15.41-23.51-14.62-25.25-9.86s2.09,6.31,12,5.41S199.42,202.49,199.42,202.49Z"/><path class="cls-4" d="M192.8,170.76c.1-17.55,11.49-20.48,14.5-15.24s-7.67,6.91-10.29,10.36A38.41,38.41,0,0,1,192.8,170.76Z"/><path class="cls-4" d="M196.27,185.61c1-8.88,7-19.08,13.23-18.17s4.52,7.5-.5,9.07C201.47,178.87,196.27,185.61,196.27,185.61Z"/><path class="cls-4" d="M201.91,220.6c-3.67-8.74-18.18-16.92-25.08-12.14s1.64,9.63,9.45,8.67S201.91,220.6,201.91,220.6Z"/><path class="cls-4" d="M204.5,241.21c-6.05-14.4-22.62-17.43-30-11.81s3.83,9.66,14.07,7.24A16.06,16.06,0,0,1,204.5,241.21Z"/><path class="cls-4" d="M199.43,200.48c5.95-18.18,17.48-18.11,19.63-13.13S199.43,200.48,199.43,200.48Z"/><path class="cls-4" d="M202.47,220.42c1.12-14.11,14.3-22.54,19.83-17.7s-7.5,7.86-11.29,10.33A63.89,63.89,0,0,0,202.47,220.42Z"/><path class="cls-4" d="M204.56,241.18c5.75-13.77,21.64-26.11,25.56-18.51,3.47,6.72-3.92,8.31-15.85,10.16C207.68,233.86,204.56,241.18,204.56,241.18Z"/><path class="cls-5" d="M202.44,254.08c-20.68-63.51-37.87-89.79-68.16-104.14l.33-.68c15.3,7.25,26.65,17.2,36.8,32.26,10.82,16,20.91,39,31.75,72.33Z"/><path class="cls-5" d="M146.28,156.15c-7.08-12-16.62-14-18-8.71C126.24,154.84,146.28,156.15,146.28,156.15Z"/><path class="cls-5" d="M156.14,163.84c-14.2-3.42-22-.76-22.36,3.56s3.36,5,11.63,1.36S156.14,163.84,156.14,163.84Z"/><path class="cls-5" d="M155,162.79c-4-8.25-2.84-19.23,4.87-18s-2.42,9.58-3.7,12.42A14.63,14.63,0,0,0,155,162.79Z"/><path class="cls-5" d="M167.57,176.75c-12.41-8.83-27.22-5.87-26,2.09s9.16-.44,14.79-1.4A58.58,58.58,0,0,1,167.57,176.75Z"/><path class="cls-5" d="M175.65,156.6c-6.3-3.43-14.83,7.82-8.65,19.34,0,0,.25-6.57,7.41-10.66S178.31,158,175.65,156.6Z"/><path class="cls-5" d="M180.28,197.2c-6.07-11.58-19.95-12.46-25.58-7.78s-1.13,8.93,2.89,9.3,7.95-3.72,13.9-3.13A40.75,40.75,0,0,1,180.28,197.2Z"/><path class="cls-5" d="M177.76,192c-2.47-12.85,3.42-22,11.1-18.86s-5.29,7.91-7.7,11.77A33.17,33.17,0,0,0,177.76,192Z"/><path class="cls-5" d="M188.28,213.91c-19.08-14.52-30.33-6.56-28.58-.57s12.64.65,16.84-.39C181.88,211.62,188.28,213.91,188.28,213.91Z"/><path class="cls-5" d="M195.9,234c-24.71-24.85-48.28,1.73-17.8-1.16A52.51,52.51,0,0,1,195.9,234Z"/><path class="cls-5" d="M193.74,228c1.59-12.91,15.7-23.52,19.93-15.37s-12.41,9-15.45,11.75A38.83,38.83,0,0,1,193.74,228Z"/><path class="cls-5" d="M188.28,213.91c-3.24-5.06-.43-23.57,9.89-24.1s2.26,11.4-2.35,15.36A41.88,41.88,0,0,0,188.28,213.91Z"/><path class="cls-5" d="M200.94,249.18c-14.31-13.37-27.74,4.17-8.33-.72A12.81,12.81,0,0,1,200.94,249.18Z"/><path class="cls-5" d="M199.83,244.92c-.43-9.52,8.34-16.8,12.76-11.22s-10.16,6.5-11.64,8.94S199.83,244.92,199.83,244.92Z"/><path class="cls-6" d="M207.89,251.25l-.75-.05c1.18-19.41,12.68-60.39,47.79-76.59l.32.69C220.47,191.35,209.06,232,207.89,251.25Z"/><path class="cls-4" d="M200,254.44C178.77,236.16,147.28,236,146.72,236c0,0,0-.76,0-.76.27,0,32.24.09,53.8,18.65Z"/><path class="cls-4" d="M161.63,237.08c-8.93-6-14.63-7.54-18.75-3s3.9,6.49,9.63,5.22S161.63,237.08,161.63,237.08Z"/><path class="cls-4" d="M177.24,241.08c-15.54-1.35-25.61,4.72-24.44,12.23s9.37-4.7,14-7.89A31.52,31.52,0,0,1,177.24,241.08Z"/><path class="cls-4" d="M190.27,247c-12-1.39-24.1,6.64-24.94,12s9.39,7.17,15.37-.9S190.27,247,190.27,247Z"/><path class="cls-4" d="M175.89,240.74c-9.79-4.51-7.08-14.47-2.1-17.92s8.19-.47,5.62,5.09c-1.63,3.53-5.52,5.15-4.64,9.49A10.62,10.62,0,0,0,175.89,240.74Z"/><path class="cls-4" d="M190.14,247c-5.32-4.16-6.07-20.18,3.45-23,8.7-2.58,10.19,5,2,11.25C190.27,239.34,190.14,247,190.14,247Z"/><path class="cls-6" d="M247.69,179.14c3-4.11,14.21-12.33,14.08-6.79S247.69,179.14,247.69,179.14Z"/><path class="cls-6" d="M236.18,187.64c4.55-3.8,10.52-17.63,2-16.77S236.18,187.64,236.18,187.64Z"/><path class="cls-6" d="M236.18,187.64c10.65-2,22.29-3.91,19.5,2.57S236.18,187.64,236.18,187.64Z"/><path class="cls-6" d="M226.55,198.69c3.95-12.57-2-21.48-8.45-18.07S226.55,198.69,226.55,198.69Z"/><path class="cls-6" d="M223.76,203c6.67-4.57,21.43-9,22.62-1.35S223.76,203,223.76,203Z"/><path class="cls-6" d="M218.91,211.49c-3.26-13.14-7.78-20.89-13-17.24S218.91,211.49,218.91,211.49Z"/><path class="cls-6" d="M218.11,213.31c9.31-3.6,24.88-6.12,24.22,1.13S218.11,213.31,218.11,213.31Z"/><path class="cls-6" d="M212.65,225.8c-.1-12.19-10.46-22.47-14.81-16S212.65,225.8,212.65,225.8Z"/><path class="cls-6" d="M212.67,227.06c11.15-2.51,29.37-6.7,26.51,2S212.67,227.06,212.67,227.06Z"/><path class="cls-6" d="M210.3,234.41c-3-7.22-17.22-14.77-20.75-7.33S210.3,234.41,210.3,234.41Z"/><path class="cls-6" d="M209,241.08c1.85-2.56,19.59-9.32,20.46-2.6S209,241.08,209,241.08Z"/><path class="cls-7" d="M301.72,188.3c-121.23,0-119.77,2-119.77-4.91,0-87.22-1.85-87.85,4.91-87.85,121.23,0,119.77-2,119.77,4.91v82.94A4.91,4.91,0,0,1,301.72,188.3Z"/><path class="cls-8" d="M211.65,189.14c-21.84,0-27.53-.42-29.41-2.29-.86-.87-.86-1.95-.86-3.21v-.25c0-18.72-.08-33.31-.15-45C181,106,181,98.27,183.34,95.92c.94-1,2.19-1,3.52-1,27.34,0,48.07-.1,64.72-.18,43.29-.21,52.29-.25,54.76,2.21.86.86.86,2,.86,3.21v83.18a5.49,5.49,0,0,1-5.48,5.48c-27.34,0-48.07.1-64.73.18C226.75,189.1,218.42,189.14,211.65,189.14Zm65.19-93.3c-6.79,0-15.1,0-25.25.08-16.66.09-37.39.19-64.73.19-1.31,0-2.14,0-2.72.61-2,2-1.95,11.2-1.78,41.62.07,11.73.16,26.33.16,45v.25c0,1.23,0,1.9.52,2.41,2.13,2.12,13.11,2.07,54,1.87,16.66-.08,37.39-.18,64.73-.18a4.35,4.35,0,0,0,4.34-4.35V100.2c0-1.23,0-1.89-.52-2.4C303.94,96.2,297.34,95.84,276.84,95.84Z"/><path class="cls-9" d="M306.63,100.15H182a4.6,4.6,0,0,1,4.61-4.61C309.38,95.54,306.63,93.81,306.63,100.15Z"/><path class="cls-9" d="M307.2,100.72H181.38v-.57A5.19,5.19,0,0,1,186.56,95c26.46,0,46.83-.08,63.19-.14,46.08-.18,54.39-.21,56.7,2.11a3.58,3.58,0,0,1,.75,2.81ZM182.56,99.58H306.07c0-.92,0-1.44-.43-1.84-2-2-13.39-1.94-55.89-1.78-16.36.07-36.72.15-63.19.15A4,4,0,0,0,182.56,99.58Z"/><path class="cls-10" d="M301.25,99.09c1.39,0,2,.13,2-.47,0-1.39.14-2-.46-2-1.39,0-2-.13-2,.47C300.79,98.46,300.65,99.09,301.25,99.09Z"/><path class="cls-7" d="M301.31,98.85a.28.28,0,0,1-.2-.08.27.27,0,0,1,0-.4l1.45-1.45a.28.28,0,0,1,.4.4l-1.45,1.45A.32.32,0,0,1,301.31,98.85Z"/><path class="cls-7" d="M302.76,98.85a.28.28,0,0,1-.2-.08l-1.45-1.45a.27.27,0,0,1,0-.4.28.28,0,0,1,.4,0L303,98.37a.28.28,0,0,1,0,.4A.32.32,0,0,1,302.76,98.85Z"/><path class="cls-8" d="M200.74,107.86H188.45a.29.29,0,1,1,0-.57h12.29a.29.29,0,0,1,0,.57Z"/><path class="cls-8" d="M200.74,176.55H188.45a.28.28,0,1,1,0-.56h12.29a.28.28,0,0,1,0,.56Z"/><path class="cls-8" d="M188.45,176.55a.28.28,0,0,1-.29-.28v-68.7a.29.29,0,0,1,.57,0v68.7A.28.28,0,0,1,188.45,176.55Z"/><path class="cls-8" d="M205.75,114.15h-10a.29.29,0,1,1,0-.57h10a.29.29,0,1,1,0,.57Z"/><path class="cls-8" d="M205.75,170.26h-10a.28.28,0,1,1,0-.56h10a.28.28,0,1,1,0,.56Z"/><path class="cls-8" d="M195.72,170.26a.28.28,0,0,1-.29-.28V113.86a.29.29,0,0,1,.57,0V170A.28.28,0,0,1,195.72,170.26Z"/><path class="cls-8" d="M211.92,122.5h-7a.29.29,0,0,1,0-.57h7a.29.29,0,1,1,0,.57Z"/><path class="cls-8" d="M211.92,161.91h-7a.28.28,0,0,1,0-.56h7a.28.28,0,1,1,0,.56Z"/><path class="cls-8" d="M204.87,161.91a.28.28,0,0,1-.28-.28V122.21a.29.29,0,0,1,.57,0v39.42A.28.28,0,0,1,204.87,161.91Z"/><path class="cls-8" d="M212.92,161.91a.28.28,0,0,1-.29-.28v-9.76a.29.29,0,0,1,.57,0v9.76A.28.28,0,0,1,212.92,161.91Z"/><path class="cls-8" d="M215.21,132.89H204.87a.29.29,0,0,1,0-.57h10.34a.29.29,0,1,1,0,.57Z"/><path class="cls-11" d="M214.84,109.83c-24.38,0-23.68.29-23.68-.68,0-3.05-.2-3.84.68-3.84,24.38,0,23.68-.29,23.68.68C215.52,109,215.72,109.83,214.84,109.83Z"/><path class="cls-12" d="M224.42,116.34c-24.38,0-23.68.29-23.68-.68,0-3-.2-3.84.67-3.84,24.38,0,23.69-.29,23.69.68C225.1,115.55,225.3,116.34,224.42,116.34Z"/><path class="cls-13" d="M214.84,124.47c-6.55,0-7.09.23-7.09-.67,0-3.06-.2-3.84.68-3.84,6.56,0,7.09-.23,7.09.67C215.52,123.69,215.72,124.47,214.84,124.47Z"/><path class="cls-13" d="M216.12,163.89c-6.56,0-7.09.22-7.09-.68,0-3.05-.2-3.84.68-3.84,6.56,0,7.09-.23,7.09.68C216.8,163.1,217,163.89,216.12,163.89Z"/><path class="cls-13" d="M216.12,154.21c-6.56,0-7.09.23-7.09-.67,0-3.06-.2-3.84.68-3.84,6.56,0,7.09-.23,7.09.67C216.8,153.43,217,154.21,216.12,154.21Z"/><path class="cls-12" d="M219.26,172.13c-18.91,0-18.52.28-18.52-.68,0-3-.2-3.84.67-3.84h17.85a.67.67,0,0,1,.67.67v3.17A.68.68,0,0,1,219.26,172.13Z"/><rect class="cls-12" x="222.85" y="167.61" width="19.2" height="4.52" rx="0.68"/><path class="cls-13" d="M265.69,144.7H247.85a.68.68,0,0,1-.68-.68c0-3.05-.2-3.84.68-3.84h17.84a.67.67,0,0,1,.68.68V144A.67.67,0,0,1,265.69,144.7Z"/><path class="cls-11" d="M204.19,178.53c-11.25,0-11.5.26-11.5-.68,0-3-.2-3.84.68-3.84,11.26,0,11.5-.26,11.5.68v3.16A.67.67,0,0,1,204.19,178.53Z"/><path class="cls-12" d="M262.06,109.83c-44.66,0-42.48.31-42.48-.68,0-3.05-.2-3.84.68-3.84,44.66,0,42.48-.31,42.48.68v3.16A.67.67,0,0,1,262.06,109.83Z"/><path class="cls-11" d="M254,154.21c-35.74,0-34.11.28-34.11-.6,0-3.28-.17-3.91.61-3.91H254a.6.6,0,0,1,.61.6v3.31A.6.6,0,0,1,254,154.21Z"/><path class="cls-11" d="M250.24,134.87c-44.67,0-42.49.31-42.49-.68,0-3.05-.2-3.84.68-3.84,44.67,0,42.49-.31,42.49.68v3.16A.69.69,0,0,1,250.24,134.87Z"/><path class="cls-12" d="M280.83,109.83c-10.34,0-10.18.17-10.18-.4,0-3.69-.16-4.12.4-4.12,10.34,0,10.18-.16,10.18.41C281.23,109.41,281.4,109.83,280.83,109.83Z"/><path class="cls-13" d="M293.52,109.83c-10.33,0-10.18.17-10.18-.4,0-3.69-.16-4.12.41-4.12,10.33,0,10.18-.16,10.18.41C293.93,109.41,294.09,109.83,293.52,109.83Z"/><path class="cls-7" d="M347.16,266c-105.81,0-103.74,1.62-103.74-3.87,0-61.8-1.46-62.85,3.87-62.85,105.81,0,103.74-1.62,103.74,3.86v59A3.87,3.87,0,0,1,347.16,266Z"/><path class="cls-8" d="M268.14,266.78c-18.77,0-23.09-.34-24.61-1.86a3.19,3.19,0,0,1-.68-2.49v-.31c0-13.24-.07-23.61-.12-31.94-.15-23.28-.19-28.81,1.66-30.67a3.73,3.73,0,0,1,2.89-.81c24.21,0,42.39-.08,57-.15,37.83-.17,44.65-.2,46.63,1.78a3.18,3.18,0,0,1,.68,2.5v59.29a4.44,4.44,0,0,1-4.44,4.44c-24.2,0-42.39.08-57,.15C281.2,266.75,274,266.78,268.14,266.78Zm57.91-67.17c-5.82,0-13,0-21.76.07-14.61.07-32.79.15-57,.15-1.12,0-1.68.07-2.08.48-1.52,1.53-1.48,8.67-1.34,29.86,0,8.34.12,18.71.12,32v.32c0,.87,0,1.34.35,1.68,1.64,1.66,11,1.61,45.82,1.45,14.61-.06,32.79-.15,57-.15a3.31,3.31,0,0,0,3.31-3.3v-59.3c0-.87,0-1.34-.35-1.69C348.89,199.9,343.34,199.61,326.05,199.61Z"/><path class="cls-9" d="M351,202.58H243.42a3.32,3.32,0,0,1,3.32-3.31C354.74,199.27,351,198,351,202.58Z"/><path class="cls-9" d="M351.6,203.15H242.86v-.57a3.88,3.88,0,0,1,3.88-3.88c23.43,0,41.33-.06,55.71-.11,40.67-.13,46.92-.15,48.64,1.61a2.45,2.45,0,0,1,.52,2c0,.13,0,.28,0,.42ZM244.05,202H350.48c0-.54,0-.82-.21-1-1.38-1.41-11.22-1.38-47.82-1.26-14.38,0-32.27.1-55.71.1A2.75,2.75,0,0,0,244.05,202Z"/><path class="cls-10" d="M346.36,201.82c.93,0,1.78.19,1.78-.37s.15-1.42-.37-1.42c-.93,0-1.78-.19-1.78.37S345.83,201.82,346.36,201.82Z"/><path class="cls-7" d="M346.44,201.73a.32.32,0,0,1-.22-.1.29.29,0,0,1,0-.4l1.25-1a.28.28,0,1,1,.36.43l-1.25,1A.26.26,0,0,1,346.44,201.73Z"/><path class="cls-7" d="M347.69,201.73a.24.24,0,0,1-.18-.07l-1.25-1a.28.28,0,1,1,.36-.43l1.25,1a.29.29,0,0,1,0,.4A.32.32,0,0,1,347.69,201.73Z"/><g class="cls-14"><path class="cls-15" d="M286.48,260.75c0-1.84-.18-2.69.63-2.69,1.84,0,2.7-.19,2.7.62,0,1.84.18,2.7-.63,2.7C287.34,261.38,286.48,261.57,286.48,260.75Z"/><path class="cls-15" d="M279.17,260.75c0-1.84-.19-2.69.62-2.69,1.84,0,2.7-.19,2.7.62,0,1.84.19,2.7-.63,2.7C280,261.38,279.17,261.57,279.17,260.75Z"/><path class="cls-15" d="M271.38,260.75c0-1.84-.19-2.69.63-2.69,1.84,0,2.69-.19,2.69.62,0,1.84.19,2.7-.62,2.7C272.24,261.38,271.38,261.57,271.38,260.75Z"/><path class="cls-15" d="M265,260.75c0-1.84-.19-2.69.63-2.69,1.83,0,2.69-.19,2.69.62,0,1.84.19,2.7-.62,2.7C265.86,261.38,265,261.57,265,260.75Z"/><path class="cls-15" d="M257.53,260.75c0-1.84-.18-2.69.63-2.69,1.84,0,2.7-.19,2.7.62,0,1.84.18,2.7-.63,2.7C258.39,261.38,257.53,261.57,257.53,260.75Z"/></g><path class="cls-11" d="M271.22,210.6c-13.23,0-13.69.36-13.69-1,0-1-.2-2.33,1-2.33,13.23,0,13.68-.37,13.68,1C272.21,209.28,272.42,210.6,271.22,210.6Z"/><path class="cls-16" d="M320.27,210.6c-45.75,0-44.21.45-44.21-1,0-1-.21-2.33,1-2.33,45.76,0,44.22-.46,44.22,1v1.34A1,1,0,0,1,320.27,210.6Z"/><path class="cls-16" d="M320.27,225.23c-45.75,0-44.21.45-44.21-1,0-1-.21-2.33,1-2.33h43.22a1,1,0,0,1,1,1v1.33A1,1,0,0,1,320.27,225.23Z"/><path class="cls-16" d="M320.27,239.85H277.05c-1.43,0-1.43-3.32,0-3.32h43.22a1,1,0,0,1,1,1v1.34A1,1,0,0,1,320.27,239.85Z"/><path class="cls-16" d="M320.27,254.48c-45.75,0-44.21.45-44.21-1,0-1-.21-2.33,1-2.33,45.76,0,44.22-.45,44.22,1C321.27,253.16,321.47,254.48,320.27,254.48Z"/><path class="cls-11" d="M271.22,217.91c-13.23,0-13.69.37-13.69-1,0-1-.2-2.33,1-2.33,13.23,0,13.68-.36,13.68,1C272.21,216.59,272.42,217.91,271.22,217.91Z"/><path class="cls-11" d="M271.22,225.23c-13.23,0-13.69.36-13.69-1,0-1-.2-2.33,1-2.33,13.23,0,13.68-.36,13.68,1C272.21,223.9,272.42,225.23,271.22,225.23Z"/><path class="cls-11" d="M271.22,232.54c-13.23,0-13.69.36-13.69-1,0-1-.2-2.33,1-2.33,13.23,0,13.68-.36,13.68,1C272.21,231.22,272.42,232.54,271.22,232.54Z"/><path class="cls-11" d="M271.22,239.85c-13.23,0-13.69.36-13.69-1,0-1-.2-2.33,1-2.33,13.23,0,13.68-.36,13.68,1v1.34A1,1,0,0,1,271.22,239.85Z"/><path class="cls-11" d="M271.22,247.17c-13.23,0-13.69.36-13.69-1,0-1-.2-2.33,1-2.33,13.23,0,13.68-.36,13.68,1C272.21,245.84,272.42,247.17,271.22,247.17Z"/><path class="cls-11" d="M271.22,254.48c-13.23,0-13.69.36-13.69-1,0-1-.2-2.33,1-2.33,13.23,0,13.68-.36,13.68,1C272.21,253.16,272.42,254.48,271.22,254.48Z"/><path class="cls-11" d="M335.92,217.91c-13.23,0-13.68.37-13.68-1,0-1-.2-2.33,1-2.33,13.23,0,13.68-.36,13.68,1C336.92,216.59,337.12,217.91,335.92,217.91Z"/><path class="cls-11" d="M335.92,232.54c-13.23,0-13.68.36-13.68-1,0-1-.2-2.33,1-2.33,13.23,0,13.68-.36,13.68,1C336.92,231.22,337.12,232.54,335.92,232.54Z"/><path class="cls-11" d="M335.92,247.17c-13.23,0-13.68.36-13.68-1,0-1-.2-2.33,1-2.33,13.23,0,13.68-.36,13.68,1C336.92,245.84,337.12,247.17,335.92,247.17Z"/><rect class="cls-13" x="290.02" y="214.63" width="14.68" height="3.33" rx="1"/><path class="cls-13" d="M303.7,232.58c-13.23,0-13.68.36-13.68-1,0-1-.2-2.33,1-2.33H303.7a1,1,0,0,1,1,1v1.33A1,1,0,0,1,303.7,232.58Z"/><path class="cls-13" d="M303.7,247.2c-13.23,0-13.68.36-13.68-1,0-1-.2-2.33,1-2.33,13.23,0,13.68-.36,13.68,1C304.7,245.88,304.9,247.2,303.7,247.2Z"/><path class="cls-7" d="M377.9,221.65c-114.8,0-112.07,1.6-112.07-4.18V153.74a4.19,4.19,0,0,1,4.18-4.18c114.81,0,112.07-1.6,112.07,4.18v63.73A4.18,4.18,0,0,1,377.9,221.65Z"/><path class="cls-8" d="M294.32,222.38c-21.77,0-26.71-.36-28.34-2a3.21,3.21,0,0,1-.68-2.53V153.74A4.71,4.71,0,0,1,270,149c25,0,44.17-.08,59.56-.14,42.59-.17,50.27-.19,52.36,1.92a3.19,3.19,0,0,1,.68,2.54v64.11a4.71,4.71,0,0,1-4.71,4.7c-25,0-44.17.08-59.56.14C308.64,222.35,300.75,222.38,294.32,222.38Zm58.84-72.49c-6.39,0-14.16,0-23.58.07-15.39.06-34.54.13-59.57.13a3.66,3.66,0,0,0-3.65,3.65v64.13c0,.91,0,1.4.37,1.78,1.79,1.8,12.34,1.76,51.61,1.6,15.39-.06,34.54-.13,59.56-.13a3.66,3.66,0,0,0,3.66-3.65V153.34c0-.91,0-1.4-.37-1.78C379.83,150.19,373.4,149.89,353.16,149.89Z"/><path class="cls-9" d="M382.08,153.15H265.83a3.59,3.59,0,0,1,3.59-3.59C385.92,149.56,382.08,148.21,382.08,153.15Z"/><path class="cls-9" d="M382.61,153.67H265.31v-.52a4.11,4.11,0,0,1,4.11-4.11c25.27,0,44.58-.07,60.09-.12,43-.14,50.72-.16,52.56,1.72a2.53,2.53,0,0,1,.55,2.06c0,.15,0,.29,0,.45Zm-116.2-1H381.57c0-.64,0-1-.25-1.24-1.53-1.57-11.18-1.53-51.8-1.4-15.52.05-34.83.11-60.1.11A3.06,3.06,0,0,0,266.41,152.62Z"/><path class="cls-10" d="M377,152.32c1.19,0,1.92.17,1.92-.4,0-.73.17-1.53-.39-1.53-1.19,0-1.92-.17-1.92.4C376.64,151.52,376.47,152.32,377,152.32Z"/><path class="cls-7" d="M377.12,152.18a.25.25,0,0,1-.2-.09.26.26,0,0,1,0-.37l1.35-1.13a.27.27,0,0,1,.37,0,.26.26,0,0,1,0,.37l-1.35,1.13A.27.27,0,0,1,377.12,152.18Z"/><path class="cls-7" d="M378.47,152.18a.27.27,0,0,1-.17-.06L377,151a.26.26,0,0,1,0-.37.27.27,0,0,1,.37,0l1.35,1.13a.26.26,0,0,1,0,.37A.25.25,0,0,1,378.47,152.18Z"/><path class="cls-8" d="M285.54,159.08H275.35a.23.23,0,0,1-.23-.24.23.23,0,0,1,.23-.23h10.19a.23.23,0,0,1,.23.23A.23.23,0,0,1,285.54,159.08Z"/><path class="cls-8" d="M285.54,216H275.35a.23.23,0,0,1-.23-.23.23.23,0,0,1,.23-.24h10.19a.23.23,0,0,1,.23.24A.23.23,0,0,1,285.54,216Z"/><path class="cls-8" d="M275.35,216a.23.23,0,0,1-.23-.23V158.84a.23.23,0,0,1,.23-.23.23.23,0,0,1,.24.23v56.95A.23.23,0,0,1,275.35,216Z"/><path class="cls-8" d="M285.18,171.22h-5.84a.24.24,0,0,1-.24-.24.23.23,0,0,1,.24-.23h5.84a.23.23,0,0,1,.24.23A.24.24,0,0,1,285.18,171.22Z"/><path class="cls-8" d="M285.18,203.88h-5.84a.23.23,0,1,1,0-.46h5.84a.23.23,0,1,1,0,.46Z"/><path class="cls-8" d="M279.34,203.88a.23.23,0,0,1-.24-.23V171a.23.23,0,0,1,.24-.23.23.23,0,0,1,.23.23v32.67A.23.23,0,0,1,279.34,203.88Z"/><path class="cls-8" d="M287.91,179.83h-8.57a.24.24,0,1,1,0-.47h8.57a.24.24,0,0,1,0,.47Z"/><path class="cls-11" d="M297.23,160.72H278.16a.56.56,0,0,1-.56-.57v-2.62a.56.56,0,0,1,.56-.56c20.2,0,19.63-.24,19.63.56v2.62A.56.56,0,0,1,297.23,160.72Z"/><rect class="cls-13" x="281.73" y="169.11" width="6.44" height="3.75" rx="0.56"/><rect class="cls-11" x="278.87" y="213.91" width="10.1" height="3.75" rx="0.56"/><path class="cls-8" d="M339.33,179.83H315.6a.24.24,0,1,1,0-.47h23.73a.24.24,0,1,1,0,.47Z"/><path class="cls-12" d="M336.37,160.72c-37,0-35.21.26-35.21-.57,0-2.45-.17-3.18.56-3.18,37,0,35.22-.26,35.22.56C336.94,160,337.11,160.72,336.37,160.72Z"/><rect class="cls-11" x="282.42" y="201.78" width="28.78" height="3.75" rx="0.5"/><rect class="cls-11" x="281.73" y="177.72" width="35.78" height="3.75" rx="0.56"/><path class="cls-8" d="M337.26,204.94H326.74a.24.24,0,0,1-.24-.24.23.23,0,0,1,.24-.23h10.52a.23.23,0,0,1,.23.23A.23.23,0,0,1,337.26,204.94Z"/><path class="cls-8" d="M337.26,196.61H326.74a.23.23,0,0,1-.24-.23.24.24,0,0,1,.24-.24h10.52a.23.23,0,0,1,.23.24A.23.23,0,0,1,337.26,196.61Z"/><path class="cls-8" d="M337.26,188.29H326.74a.24.24,0,0,1-.24-.24.23.23,0,0,1,.24-.23h10.52a.23.23,0,0,1,.23.23A.23.23,0,0,1,337.26,188.29Z"/><path class="cls-12" d="M330.79,181.6c-8.12,0-8.44.21-8.44-.34,0-2.61-.22-3.41.33-3.41,8.12,0,8.44-.21,8.44.34C331.12,180.8,331.34,181.6,330.79,181.6Z"/><rect class="cls-12" x="289.22" y="188.69" width="19.47" height="3.75" rx="0.5"/><path class="cls-13" d="M341.31,181.6c-8.12,0-8.44.21-8.44-.34,0-2.61-.22-3.41.34-3.41,8.11,0,8.43-.21,8.43.34C341.64,180.8,341.86,181.6,341.31,181.6Z"/><path class="cls-12" d="M330.79,189.93c-8.12,0-8.44.21-8.44-.34,0-2.61-.22-3.41.33-3.41,8.12,0,8.44-.21,8.44.34C331.12,189.13,331.34,189.93,330.79,189.93Z"/><path class="cls-13" d="M341.31,189.93c-8.12,0-8.44.21-8.44-.34,0-2.61-.22-3.41.34-3.41,8.11,0,8.43-.21,8.43.34v3.07A.34.34,0,0,1,341.31,189.93Z"/><path class="cls-12" d="M330.79,198.25c-8.12,0-8.44.21-8.44-.34,0-2.61-.22-3.41.33-3.41,8.12,0,8.44-.21,8.44.34C331.12,197.45,331.34,198.25,330.79,198.25Z"/><path class="cls-13" d="M341.31,198.25c-8.12,0-8.44.21-8.44-.34,0-2.61-.22-3.41.34-3.41,8.11,0,8.43-.21,8.43.34C341.64,197.45,341.86,198.25,341.31,198.25Z"/><path class="cls-12" d="M330.79,206.58c-8.12,0-8.44.21-8.44-.34,0-2.61-.22-3.41.33-3.41,8.12,0,8.44-.21,8.44.34C331.12,205.78,331.34,206.58,330.79,206.58Z"/><path class="cls-13" d="M341.31,206.58c-8.12,0-8.44.21-8.44-.34,0-2.61-.22-3.41.34-3.41,8.11,0,8.43-.21,8.43.34C341.64,205.78,341.86,206.58,341.31,206.58Z"/><path class="cls-8" d="M332,204.94a.24.24,0,0,1-.24-.24V179.59a.24.24,0,0,1,.24-.23.23.23,0,0,1,.23.23V204.7A.23.23,0,0,1,332,204.94Z"/><path class="cls-13" d="M346.46,160.72c-5.42,0-5.88.19-5.88-.57,0-2.45-.17-3.18.57-3.18,5.42,0,5.87-.19,5.87.56C347,160,347.19,160.72,346.46,160.72Z"/><path class="cls-13" d="M357.5,160.72c-5.42,0-5.88.19-5.88-.57,0-2.45-.17-3.18.56-3.18,5.42,0,5.88-.19,5.88.56C358.06,160,358.23,160.72,357.5,160.72Z"/><path class="cls-13" d="M368.54,160.72c-5.42,0-5.88.19-5.88-.57,0-2.45-.17-3.18.56-3.18,5.42,0,5.88-.19,5.88.56C369.1,160,369.27,160.72,368.54,160.72Z"/><circle class="cls-7" cx="104.08" cy="188.39" r="19.99"/><path class="cls-17" d="M104.08,209.38a21,21,0,1,1,21-21A21,21,0,0,1,104.08,209.38Zm0-40a19,19,0,1,0,19,19A19,19,0,0,0,104.08,169.4Z"/><g class="cls-18"><path class="cls-19" d="M103.68,170.73a1.18,1.18,0,0,1,.72,2.24A1.18,1.18,0,0,1,103.68,170.73Z"/><path class="cls-19" d="M112.51,172.86a1.18,1.18,0,0,1-.5,2.3A1.18,1.18,0,0,1,112.51,172.86Z"/><path class="cls-19" d="M119.59,180.11a1.18,1.18,0,0,1-1.69,1.65A1.18,1.18,0,0,1,119.59,180.11Z"/><path class="cls-19" d="M119.36,188.34a1.18,1.18,0,0,1,2.35,0A1.18,1.18,0,0,1,119.36,188.34Z"/><path class="cls-19" d="M95.58,172.86a1.18,1.18,0,0,0,.49,2.3A1.18,1.18,0,0,0,95.58,172.86Z"/><path class="cls-19" d="M88.5,180.11a1.18,1.18,0,0,0,1.69,1.65A1.18,1.18,0,0,0,88.5,180.11Z"/><path class="cls-19" d="M88.73,188.34a1.18,1.18,0,0,0-2.35,0A1.18,1.18,0,0,0,88.73,188.34Z"/><path class="cls-19" d="M103.69,206a1.18,1.18,0,0,0,.72-2.25A1.18,1.18,0,0,0,103.69,206Z"/><path class="cls-19" d="M112.51,203.83a1.18,1.18,0,0,0-.49-2.3A1.18,1.18,0,0,0,112.51,203.83Z"/><path class="cls-19" d="M119.59,196.58a1.18,1.18,0,0,0-1.69-1.64A1.18,1.18,0,0,0,119.59,196.58Z"/><path class="cls-19" d="M95.58,203.83a1.18,1.18,0,0,1,.5-2.3A1.18,1.18,0,0,1,95.58,203.83Z"/><path class="cls-19" d="M88.5,196.58a1.18,1.18,0,0,1,1.69-1.64A1.18,1.18,0,0,1,88.5,196.58Z"/></g><path class="cls-19" d="M104,189.38a.5.5,0,0,1-.26-.08.51.51,0,0,1-.24-.42v-13a.5.5,0,0,1,.5-.5.5.5,0,0,1,.5.5v12.21l11.12-5.65a.49.49,0,0,1,.67.21.51.51,0,0,1-.22.68l-11.84,6A.46.46,0,0,1,104,189.38Z"/><g class="cls-20"><polygon class="cls-19" points="209.46 295.82 180.17 295.82 188.16 278.5 201.47 278.5 209.46 295.82"/><path class="cls-21" d="M240.24,280.69c-96.77,0-92.84.84-92.84-1.9,0-65.05-.81-62.79,1.9-62.79,96.76,0,92.84-.84,92.84,1.9C242.14,283,243,280.69,240.24,280.69Z"/><path class="cls-22" d="M238.12,268.22c-92,0-88.61.87-88.61-1.9,0-49.13-.8-48.43,1.9-48.43,92,0,88.61-.87,88.61,1.9C240,268.92,240.83,268.22,238.12,268.22Z"/><path class="cls-19" d="M194.64,277.22c-3.48,0-3.48-5.27,0-5.27S198.12,277.22,194.64,277.22Z"/><path class="cls-7" d="M227,264.59c-68.38,0-67,1-67-2.5,0-39.89-.94-40.57,2.5-40.57,68.37,0,67-1,67,2.5C229.5,263.91,230.44,264.59,227,264.59Z"/><path class="cls-8" d="M176.24,265c-12.31,0-15.13-.22-16.1-1.18a2,2,0,0,1-.42-1.56v-.21c0-8.55,0-15.25-.08-20.63-.1-15-.12-18.56,1.06-19.75a2.37,2.37,0,0,1,1.83-.5c15.44,0,27.1-.06,36.47-.1,24.68-.1,29.12-.12,30.38,1.14a2,2,0,0,1,.42,1.56V224c0,8.55,0,15.25.08,20.63.1,15,.12,18.56-1.06,19.75a2.37,2.37,0,0,1-1.83.5c-15.45,0-27.11.05-36.48.1C184.72,265,180,265,176.24,265ZM213,221.7c-3.77,0-8.39,0-14,0-9.37,0-21,.1-36.48.1-.65,0-1.09,0-1.38.32-1,1-1,5.24-.88,19.3,0,5.38.08,12.08.08,20.63v.21c0,.57,0,.88.24,1.11,1.08,1.08,7.19,1.06,29.93,1,9.37-.05,21-.1,36.48-.1.64,0,1.08,0,1.38-.32,1-1,1-5.24.88-19.3,0-5.38-.08-12.08-.08-20.63v-.21c0-.57,0-.88-.23-1.11C228.14,221.89,224.48,221.7,213,221.7Z"/><path class="cls-9" d="M229.5,223.66H160a2.14,2.14,0,0,1,2.14-2.14C231.68,221.52,229.5,220.61,229.5,223.66Z"/><path class="cls-9" d="M229.81,224H159.73v-.32a2.45,2.45,0,0,1,2.45-2.45c16.13,0,28.61-.05,37.73-.09,24.12-.1,28.47-.11,29.57,1a1.56,1.56,0,0,1,.33,1.28V224Zm-69.43-.63h68.81c0-.4,0-.62-.16-.79-.91-.92-6.89-.9-29.12-.81-9.11,0-21.6.09-37.73.09A1.83,1.83,0,0,0,160.38,223.35Z"/><path class="cls-10" d="M226.48,223.17h.91c.33,0,.43-1.16,0-1.16h-.91c-.41,0-.24,1.22-.24.92A.24.24,0,0,0,226.48,223.17Z"/><path class="cls-7" d="M226.53,223.09a.16.16,0,0,1-.12-.06.15.15,0,0,1,0-.22l.81-.68a.16.16,0,0,1,.2.25l-.81.67A.18.18,0,0,1,226.53,223.09Z"/><path class="cls-7" d="M227.34,223.09a.18.18,0,0,1-.1,0l-.81-.67a.16.16,0,0,1,0-.23.17.17,0,0,1,.22,0l.81.68a.16.16,0,0,1-.1.28Z"/><path class="cls-11" d="M187.2,233.24c-18.32,0-17.78.2-17.78-.44,0-1.5-.13-2.07.44-2.07,18.32,0,17.78-.2,17.78.43C187.64,232.66,187.77,233.24,187.2,233.24Z"/><path class="cls-11" d="M200.89,255.37c-32.87,0-31.47.27-31.47-.58,0-1.16-.15-1.93.58-1.93,32.87,0,31.47-.27,31.47.58C201.47,254.59,201.62,255.37,200.89,255.37Z"/><path class="cls-13" d="M167.11,233.27c-1.41,0-2.06.14-2.06-.48,0-1.41-.14-2.06.48-2.06,1.4,0,2.06-.14,2.06.48C167.59,232.61,167.73,233.27,167.11,233.27Z"/><path class="cls-13" d="M167.11,238.85c-1.41,0-2.06.15-2.06-.47,0-1.41-.14-2.07.48-2.07,1.4,0,2.06-.14,2.06.48C167.59,238.2,167.73,238.85,167.11,238.85Z"/><path class="cls-13" d="M167.11,244.8c-1.41,0-2.06.15-2.06-.48,0-1.4-.14-2.06.48-2.06,1.4,0,2.06-.14,2.06.48C167.59,244.15,167.73,244.8,167.11,244.8Z"/><path class="cls-13" d="M167.11,249.68c-1.41,0-2.06.14-2.06-.48,0-1.41-.14-2.06.48-2.06,1.4,0,2.06-.14,2.06.48C167.59,249,167.73,249.68,167.11,249.68Z"/><path class="cls-13" d="M167.11,255.38c-1.41,0-2.06.14-2.06-.48,0-1.4-.14-2.06.48-2.06,1.4,0,2.06-.14,2.06.48C167.59,254.73,167.73,255.38,167.11,255.38Z"/><path class="cls-16" d="M223.72,233.28c-34.85,0-33.73.35-33.73-.76,0-.81-.15-1.81.77-1.81,34.85,0,33.73-.35,33.73.77C224.49,232.28,224.64,233.28,223.72,233.28Z"/><path class="cls-11" d="M187.2,238.83c-18.32,0-17.78.19-17.78-.44,0-1.5-.13-2.08.44-2.08,18.32,0,17.78-.19,17.78.44C187.64,238.25,187.77,238.83,187.2,238.83Z"/><path class="cls-16" d="M220.29,238.87c-31.34,0-30.3.32-30.3-.73,0-.88-.15-1.84.73-1.84,31.33,0,30.29-.32,30.29.73C221,237.91,221.17,238.87,220.29,238.87Z"/><path class="cls-11" d="M187.2,244.78c-18.32,0-17.78.19-17.78-.44,0-1.5-.13-2.08.44-2.08,18.32,0,17.78-.19,17.78.44C187.64,244.2,187.77,244.78,187.2,244.78Z"/><path class="cls-16" d="M214.55,244.82c-25.28,0-24.56.28-24.56-.66s-.17-1.91.66-1.91c25.28,0,24.56-.28,24.56.65S215.38,244.82,214.55,244.82Z"/><path class="cls-16" d="M214.55,251c-25.28,0-24.56.29-24.56-.65s-.17-1.92.66-1.92c25.28,0,24.56-.28,24.56.66S215.38,251,214.55,251Z"/><path class="cls-11" d="M187.2,250.72c-18.32,0-17.78.2-17.78-.43,0-1.5-.13-2.08.44-2.08,18.32,0,17.78-.19,17.78.44C187.64,250.15,187.77,250.72,187.2,250.72Z"/><path class="cls-16" d="M223.87,255.4c-21.87,0-21.27.26-21.27-.61,0-1-.18-2,.61-2,21.88,0,21.27-.26,21.27.61C224.48,254.46,224.66,255.4,223.87,255.4Z"/><path class="cls-23" d="M292.26,316.1c0-21.06.18-20.22-.41-20.22-187.37,0-177.86-.21-177.86.41V316.1C114,316.57,292.26,316.88,292.26,316.1Z"/><path class="cls-24" d="M280.83,312.31c-70.71,0-68,.66-68-1.52,0-9.74-.48-11.22,1.52-11.22,70.72,0,68-.65,68,1.52C282.35,310.83,282.83,312.31,280.83,312.31Z"/><path class="cls-23" d="M247.59,308.53c-3.54,0-3.54-5.35,0-5.35S251.12,308.53,247.59,308.53Z"/><path class="cls-24" d="M205.45,312.31c-70.72,0-68,.66-68-1.52,0-9.74-.48-11.22,1.52-11.22,70.71,0,68-.65,68,1.52C207,310.83,207.45,312.31,205.45,312.31Z"/><path class="cls-23" d="M172.2,308.53c-3.53,0-3.53-5.35,0-5.35S175.74,308.53,172.2,308.53Z"/><rect class="cls-25" x="143.15" y="316.51" width="126.31" height="5.6"/><path class="cls-26" d="M273.28,317.66,288.06,399c.5,2.73-2.87,2.5-3.32.82-22.93-85.82-23.14-83.39-20.43-83.37C272.09,316.5,273,316.14,273.28,317.66Z"/><path class="cls-26" d="M127.66,317.66c-.06.35-14.84,81.44-14.79,81.78.42,2.84,3,1.49,3.33.36,23-86,23.08-83.38,20.42-83.36C128.84,316.5,127.94,316.15,127.66,317.66Z"/><path class="cls-26" d="M137.49,333.16c.1.34,25.15,78.86,25.36,79.14,1.7,2.31,3.37-.1,3.11-1.24-20.12-86.76-18.8-84.45-21.14-83.19C138,331.59,137,331.7,137.49,333.16Z"/><path class="cls-27" d="M135.12,307.67l-.15-.48c8.51-2.59,7.72-7.09,6.73-12.78-.93-5.31-2.09-11.92,4.46-18.65l.35.35c-6.36,6.54-5.28,12.74-4.32,18.21C143.19,300,144.05,305,135.12,307.67Z"/><path class="cls-28" d="M204.91,388.92c1.65,1.22-6.46,9.5-13.47,10.61l-1.56-1.95c-.86-7.17-2.31-4.39,6.53-11Z"/><path class="cls-29" d="M216.37,397.58c-7.13,4-13,13-16.73,11.37s-5.94-12.9-8-15.11c0,0,3.13-3.46,3.15-3.48l5.43-.76A17.44,17.44,0,0,0,202,392c6,6.6,21.64-5.87,23.46-3.63C227.56,390.94,219.3,395.93,216.37,397.58Z"/><path class="cls-30" d="M222.68,393.42a44.17,44.17,0,0,1-6.31,4.16c-7.13,4-13,13-16.73,11.37s-5.94-12.9-8-15.11l3.85-3.58,4.73-.66A17.44,17.44,0,0,0,202,392c-.48,2.31-2.18,7.41-1.62,9.57,1.66,6.42,10.49-3.26,17.19-5.85C219.13,395.06,221.25,394.09,222.68,393.42Z"/><path class="cls-31" d="M204.91,388.92c-1.7-.09-9.85,2.21-15,8.66,0,0-17.91-14.86-26.23-37.78l15.54-9.17s13.15,22.58,17.23,28.61A49.9,49.9,0,0,0,204.91,388.92Z"/><path class="cls-32" d="M189.92,398l-.22-.18c-.18-.15-18.06-15.17-26.31-37.9l-.08-.22,16-9.43.14.24c.13.23,13.2,22.64,17.22,28.59a50.53,50.53,0,0,0,8.44,9.62l.66.55-.86-.05c-1.35-.07-9.48,1.95-14.79,8.55ZM164,359.93c7.73,21.1,23.79,35.46,25.85,37.24a25.93,25.93,0,0,1,14.35-8.49,52.64,52.64,0,0,1-8-9.28c-3.8-5.63-15.65-25.9-17.09-28.38Z"/><path class="cls-28" d="M173,394.86c-.74,3.05,15.15,8.56,20,4.76l-1.67-11.8-14.11.35Z"/><path class="cls-29" d="M200.58,416.12c-9.68,0-7.36-2.94-16.94-3.63s-12.57-2.26-12.35-5.6,5.94-12.06,6.56-15.47l9.45,3.43c-1.22,6.65-.62,9.87,6.69,13C202.39,411.56,209.76,416.14,200.58,416.12Z"/><path class="cls-30" d="M204.44,415.51c-.57.39-1.79.61-3.86.61-9.68,0-7.36-2.94-16.94-3.63-20.11-1.47-10.72-7.36-6.18-19.72,9,1.53,7.08,1.08,9.84,2.08a23.63,23.63,0,0,0-.49,4.63c-10.93.74-15,8.77-2,11,4.75.8,11.42,4.41,14.09,4.71C200.81,415.36,203.24,415.47,204.44,415.51Z"/><path class="cls-31" d="M196.59,369.31c-3.06,8.24-4.16,24-3.57,30.3-1.89-2.84-8.46-7.44-20-4.75L180.12,349l-25-3L140.14,324.4l11.8-6.95c4.24,3.13,39.19,8.83,48.64,14C209.79,336.5,199.64,361.08,196.59,369.31Z"/><path class="cls-32" d="M193.41,400.71l-.62-.94c-1.84-2.76-8.34-7.29-19.73-4.63l-.41.09.06-.41,7.08-45.55-24.87-3-.08-.1-15.11-21.82,3.9-2.3,7.24-4.27,1.08-.63.15.11c1.91,1.41,10.59,3.44,19.77,5.6,11.11,2.61,23.71,5.57,28.85,8.38,8.77,4.81.74,26-3.12,36.23-.28.74-.53,1.4-.74,2-3,8-4.18,23.56-3.55,30.18Zm-13.75-6.94c6.77,0,11.08,2.72,13,4.92-.44-7.11.8-21.79,3.66-29.48.21-.58.46-1.24.74-2,3.51-9.26,11.72-31,3.37-35.53-5.07-2.78-17.62-5.73-28.7-8.33-9.41-2.21-17.57-4.12-19.82-5.59l-.76.45-7.24,4.27-3.38,2,14.7,21.21,25.2,3.08-7.1,45.71A29.16,29.16,0,0,1,179.66,393.77Z"/><path class="cls-33" d="M183.45,394.17l-.32.11a26.59,26.59,0,0,0-10.14.58L180.12,349l-16.71-2-23.95-11.72.79-16.58,8.81-1.57c5.36,13.78,25.19,25.5,42.24,30.46C184.67,372,179.74,385.13,183.45,394.17Z"/><path class="cls-32" d="M184.87,348.85h-.17a.26.26,0,0,1-.25-.26.26.26,0,0,1,.25-.24,16.44,16.44,0,0,0,8.19-2.17.25.25,0,0,1,.27.42A17,17,0,0,1,184.87,348.85Z"/><path class="cls-34" d="M202.57,404.05l.12-.19a4.81,4.81,0,0,0,.29-.44,5,5,0,0,0,.53-1.28c.12-.48.2-1,.31-1.46a4.35,4.35,0,0,1,.24-.75,3.33,3.33,0,0,1,.41,2.46,2.48,2.48,0,0,1-.17.48,2,2,0,0,1-.27.42,1.72,1.72,0,0,1-.33.33,1.41,1.41,0,0,1-.34.22,1.59,1.59,0,0,1-.56.19Z"/><path class="cls-21" d="M223.46,295.92c2.5-4.16,11.07-6.32,16.12,0Z"/><path class="cls-35" d="M213.76,291.93c5.47-3.43,16.93-4.71,20.31-3.37s6.05,4.33,4.84,5.22-5-1.46-7.2-.57c-6.13,2.45-7.91,5.39-18.46,5Z"/><path class="cls-36" d="M215.66,300.47c-5.66,1.4-27,6.65-33.5,7.38s-20.38-12-25-16.55a29.37,29.37,0,0,1-3.74,7.89c-2.36,3.39-4,11.53-2.85,13.35,1,1.46,3.63,3.68,3.95,4.91s-1.78,5.34-11.2,8.06L126,295.8,147.61,264c8.88.13,34.22,29.72,36.73,29.27,29.2-5.23,27.68-5.29,28.56-4.31a16.52,16.52,0,0,1,3.58,7.41C216.92,298.18,217.39,300,215.66,300.47Z"/><path class="cls-37" d="M143.14,325.84l-17.51-30.06.1-.14,12.59-18.52,9.14-13.44h.15c5.72.08,17.92,11.93,26.82,20.59,4.47,4.33,9.06,8.83,9.86,8.68,6.67-1.19,11.73-2.12,15.59-2.82,12.49-2.28,12.49-2.28,13.13-1.51l.1.11a16.62,16.62,0,0,1,3.6,7.32l.08.32c.43,1.82.91,3.89-1.06,4.37-6.25,1.55-27.12,6.66-33.54,7.39-6.77.77-21.31-12.81-24.95-16.32a28.36,28.36,0,0,1-3.63,7.54c-2.37,3.4-3.86,11.28-2.85,13a17.77,17.77,0,0,0,1.74,2,9.9,9.9,0,0,1,2.26,3c.39,1.49-1.92,5.68-11.4,8.41Zm-16.84-30,17.11,29.37c9.08-2.67,11.1-6.54,10.8-7.66a10,10,0,0,0-2.13-2.74,21.5,21.5,0,0,1-1.69-1.95h-.14v-.21c-1.15-2.11.57-10.26,2.9-13.59a29.09,29.09,0,0,0,3.7-7.82l.14-.43.32.31c8.19,8,19.59,17.07,24.82,16.48,6.38-.73,27.23-5.83,33.46-7.38,1.31-.32,1.14-1.56.68-3.57l-.06-.22a16.3,16.3,0,0,0-3.52-7.29l-.11-.13c-.42-.5-.66-.47-12.6,1.71l-15.59,2.82c-1,.18-4.08-2.74-10.35-8.84-8.76-8.51-20.72-20.13-26.29-20.42l-9,13.18Z"/><path class="cls-38" d="M216.89,300s-27.42,6.87-34.89,7.72c-5.29.6-15.62-7.93-21.22-13-.46-.57-5.59-5.43-6.46-5.11-2,.77-5.47,9-6.49,13.5a9.67,9.67,0,0,0,2.54,9.28c1,1.46,3.63,3.68,3.95,4.9s-1.78,5.34-11.2,8.06c-11.38-19.52-9.45-15.77-11.33-21,1.07-6.33,3.65-21.53,4.71-27.76,6.54-4.35,2-1.35,13-8.66,3.94,2.42,10.31,14.9,13.88,20.12s14,16.05,18.46,16.3c3.94.23,28.8-6.62,34.5-8.2A24.72,24.72,0,0,1,216.89,300Z"/><path class="cls-37" d="M181,296.93a.23.23,0,0,1-.11,0,.25.25,0,0,1-.11-.33,26.48,26.48,0,0,1,2-3.19.26.26,0,0,1,.35,0,.25.25,0,0,1,0,.35,28.32,28.32,0,0,0-1.89,3.06A.29.29,0,0,1,181,296.93Z"/><path class="cls-37" d="M184.22,296.8a.25.25,0,0,1-.24-.17,20,20,0,0,0-.87-2.31.25.25,0,0,1,.43-.25,18.41,18.41,0,0,1,.91,2.4.25.25,0,0,1-.16.32Z"/><path class="cls-37" d="M157.12,291.55a.25.25,0,0,1-.19-.09c-.35-.39-3.41-3.84-3.67-4.23a.25.25,0,0,1,.41-.27c.18.27,2.27,2.64,3.63,4.17a.25.25,0,0,1,0,.35A.23.23,0,0,1,157.12,291.55Z"/><path class="cls-37" d="M151.51,314.72l-.1,0a33.92,33.92,0,0,0-6.89-1.76.25.25,0,0,1-.21-.29.26.26,0,0,1,.28-.21,35.1,35.1,0,0,1,7,1.8.25.25,0,0,1,.12.33A.24.24,0,0,1,151.51,314.72Z"/><path class="cls-35" d="M151,231.45c.71,8.72,7.65,9.28,1.28,11.53,0,0,1,7.83-5.42,9.8l-6.17-11.68,4.39-8.06Z"/><path class="cls-39" d="M153,265.36c-1,7.47-8.32,9.17-10.49,18.26s4.37,10,3.65,18.54-9,11.13-9,11.13-38.84-29-38.84-29.12-1.38-3.46,6.69-7.7c8.1-4.06-5.42-13.23,1.2-21.59,5.8-7.32,10.91,3.23,14.14-18.38s18.29-21.18,23.39-17.49c15,.73,12.13,12,2,23.18C140.1,248.51,154,257.89,153,265.36Z"/><path class="cls-40" d="M153,265.36c-1,7.47-8.32,9.17-10.49,18.26s4.37,10,3.65,18.54-9,11.13-9,11.13l-.07-.05-13.35-30.18c-7.23-14.11,8.19-18.42,14.35-28.77,4.25-7.13,1.7-13.93,3.14-18.09s7.3-.34,9.76-6.95c1.95-5.23-.29-8-1.31-8.9,9.26,3.92,2.83,14.35-3.91,21.84C140.1,248.51,154,257.89,153,265.36Z"/><path class="cls-40" d="M116.46,284.17l-12.36,4.36c-3.47-2.61-5.77-4.34-5.77-4.36s-1.38-3.46,6.69-7.7l.15-.09c5.32-.84,8.36-3.09,6.53-7.75-4.53-11.51,12.56-10.83,11.88-22A11,11,0,0,1,118,260C108.42,265.18,125.7,277.27,116.46,284.17Z"/><path class="cls-35" d="M148.46,239.94c-1.14-4.72-8-2.21-2.59,6.15Z"/><path class="cls-41" d="M144.55,244.52l0,.45a9,9,0,0,0-.08,1.24,12.89,12.89,0,0,0,.13,1.93c.11.75.27,1.57.48,2.47s.48,1.86.77,2.88.62,2.1.86,3.24a16.7,16.7,0,0,1,.48,3.58,8,8,0,0,1-.79,3.69,16,16,0,0,1-2.16,3.06c-.8.93-1.62,1.8-2.41,2.65a33.93,33.93,0,0,0-4,4.85,12.91,12.91,0,0,0-1.12,2.23,7.83,7.83,0,0,0-.45,1.87,6.32,6.32,0,0,0,0,.71,3,3,0,0,0,0,.53c0,.29,0,.45,0,.45l-.06-.44a3.69,3.69,0,0,1,0-.54,4.31,4.31,0,0,1,0-.72,7.92,7.92,0,0,1,.36-1.93,11.17,11.17,0,0,1,1.05-2.33,30.45,30.45,0,0,1,3.9-5c.78-.86,1.59-1.73,2.36-2.66a15.44,15.44,0,0,0,2.07-3,6.13,6.13,0,0,0,.58-1.67l.1-.43,0-.45a6.55,6.55,0,0,0,0-.89,16.09,16.09,0,0,0-.43-3.48c-.49-2.24-1.09-4.33-1.46-6.15a20.5,20.5,0,0,1-.38-2.51,14.7,14.7,0,0,1,0-2,7.13,7.13,0,0,1,.16-1.25Z"/><path class="cls-41" d="M111.36,279.7a.29.29,0,0,1-.27-.2c-1.32-3.86.5-6.07,2.25-8.22,1.17-1.42,2.27-2.76,2.49-4.55.27-2.08-.87-3.78-2.18-5.74-1.52-2.28-3.25-4.87-3.25-8.74,0-4.4,3.7-7.46,6.67-9.93,1.89-1.56,3.52-2.91,3.52-4.08a.28.28,0,0,1,.28-.28.29.29,0,0,1,.28.28c0,1.43-1.64,2.79-3.72,4.52-2.88,2.39-6.46,5.36-6.46,9.49,0,3.7,1.67,6.21,3.15,8.42,1.32,2,2.57,3.84,2.28,6.13-.25,1.95-1.46,3.42-2.62,4.84-1.73,2.12-3.37,4.12-2.15,7.68a.28.28,0,0,1-.18.36Z"/><path class="cls-41" d="M133.09,298.2a.26.26,0,0,1-.18-.07.28.28,0,0,1,0-.4s2.38-2.8,2-8.79c-.14-1.94-1.79-3.85-3.53-5.86-3.61-4.17-8.1-9.35-1-17.52,9.85-11.3,8.63-15.31,6.94-20.86l-.2-.69a.27.27,0,0,1,.19-.35.28.28,0,0,1,.35.19l.21.69c1.74,5.72,3,9.86-7.06,21.39-6.79,7.8-2.66,12.57,1,16.77,1.82,2.1,3.53,4.07,3.67,6.2.43,6.24-2,9.09-2.1,9.21A.31.31,0,0,1,133.09,298.2Z"/><path class="cls-42" d="M154.16,414.28h-2.49c0-4.69.76-10-4.34-10-7.68,0-6.83-8.38-6.83-10.63H143C143,410.74,154.16,391.64,154.16,414.28Z"/><path class="cls-42" d="M131.8,414.28h-2.49c0-22.71,11.16-3.47,11.16-20.67H143c0,1.52,1.07,10.63-6.82,10.63a4.34,4.34,0,0,0-4.34,4.33Z"/><path class="cls-43" d="M184.71,348.6c-14.35,16-44.4,14.43-58,13.41s-18-4.5-22.84-15.53-11-38.38-9.25-53c2-17.46,19.87-16.63,27.22-12.74,14,7.37,14.52,22.21,24.56,46.52,8.17,19.78,23.19,20.53,33.67,21.12C182.8,348.56,184.71,348.6,184.71,348.6Z"/><path class="cls-23" d="M140.55,362.89c-5.81,0-10.75-.36-13.85-.6-13.29-1-18-4.22-23.07-15.7-4.92-11.22-11-38.46-9.27-53.12.72-6.2,3.57-10.77,8.24-13.23,6.14-3.23,14.58-2.27,19.39.28,10.13,5.34,13.24,14.49,18,28.34,1.83,5.38,3.91,11.48,6.73,18.32,8.06,19.53,22.64,20.34,33.29,20.94h.14c2.66.15,4.58.18,4.6.18h.62l-.41.46C174.28,360.68,154.79,362.89,140.55,362.89ZM111.7,278.75a19.16,19.16,0,0,0-8.84,2c-4.56,2.4-7.23,6.71-7.94,12.8-1.69,14.57,4.34,41.66,9.23,52.82s9.57,14.39,22.6,15.37c10.52.79,42.35,3.17,57.33-12.87-.78,0-2.23-.07-4-.17h-.15c-10.18-.58-25.57-1.44-33.77-21.29-2.83-6.86-4.91-13-6.75-18.36-4.67-13.72-7.75-22.78-17.68-28A22.29,22.29,0,0,0,111.7,278.75Z"/><path class="cls-44" d="M184.71,348.6c-14.35,16-44.4,14.43-58,13.41s-18-4.5-22.84-15.53-11-38.38-9.25-53c2-17.46,19.87-16.63,27.22-12.74a9.82,9.82,0,0,0-6.34,2.83c-4.71,4.21,3.47,57,9.41,65s23.16,9.29,32.45,7.68c7.54-1.31,18.76-6.13,22.71-7.89C182.8,348.56,184.71,348.6,184.71,348.6Z"/></g><path class="cls-7" d="M302.33,315.58c80.32,0,75.77.5,76.09-1.1,8.36-42.25,9-41.84,6.62-41.84-80.32,0-75.77-.5-76.09,1.1C300.59,316,300,315.58,302.33,315.58Z"/><path class="cls-8" d="M362.44,316.18l-15.53,0c-10.63,0-25.2-.05-44.58-.05h-.06a1.51,1.51,0,0,1-1.31-.43c-.8-1-.3-3.44,3-19.5,1.18-5.81,2.64-13,4.53-22.55a.76.76,0,0,0,0-.15c0-1.05.67-1.24,4.47-1.35s11.83-.1,27.54-.07c10.64,0,25.2.05,44.58.05h.07a1.54,1.54,0,0,1,1.3.42c.8,1,.3,3.45-3,19.51-1.18,5.8-2.64,13-4.52,22.54,0,.06,0,.11,0,.16,0,1.05-.66,1.24-4.47,1.35C372.11,316.16,368.37,316.18,362.44,316.18Zm-60.11-1.13c19.38,0,33.95,0,44.58.05,23.42,0,30.08.06,31-.36v0a1.82,1.82,0,0,1,0-.32c1.89-9.52,3.35-16.74,4.53-22.55,2.6-12.83,3.67-18.15,3.17-18.63a1.62,1.62,0,0,0-.49,0H385c-19.38,0-34,0-44.58-.05-23.42,0-30.08-.06-31,.37v0a1.91,1.91,0,0,1,0,.32c-1.88,9.52-3.35,16.74-4.52,22.55-2.6,12.83-3.68,18.14-3.17,18.63a1.62,1.62,0,0,0,.49,0Z"/><path class="cls-45" d="M372.33,287.72c3.82,0,5.47.35,5.47-1.26,0-3.82.35-5.47-1.26-5.47-3.82,0-5.48-.35-5.48,1.26C371.06,286.07,370.72,287.72,372.33,287.72Z"/><path class="cls-11" d="M335.72,287.72c26.95,0,27,.52,27-1.26,0-3.82.34-5.47-1.27-5.47-26.95,0-27-.52-27,1.26v4.21A1.26,1.26,0,0,0,335.72,287.72Z"/><path class="cls-12" d="M314.55,287.72c10.56,0,11.74.43,11.74-1.26,0-3.82.35-5.47-1.26-5.47-10.56,0-11.74-.42-11.74,1.26C313.29,286.07,312.94,287.72,314.55,287.72Z"/><path class="cls-45" d="M370.31,297.07c3.82,0,5.47.34,5.47-1.27,0-3.82.35-5.47-1.26-5.47-3.82,0-5.48-.35-5.48,1.26C369,295.41,368.7,297.07,370.31,297.07Z"/><path class="cls-11" d="M333.7,297.07c26.95,0,27,.51,27-1.27,0-3.82.35-5.47-1.26-5.47-26.95,0-27-.52-27,1.26C332.44,295.41,332.09,297.07,333.7,297.07Z"/><path class="cls-12" d="M312.53,297.07c10.56,0,11.74.42,11.74-1.27,0-3.82.35-5.47-1.26-5.47-10.56,0-11.74-.42-11.74,1.26C311.27,295.41,310.92,297.07,312.53,297.07Z"/><path class="cls-45" d="M368.61,307.23c3.82,0,5.47.35,5.47-1.26,0-3.82.35-5.48-1.26-5.48-3.82,0-5.48-.35-5.48,1.27C367.34,305.58,367,307.23,368.61,307.23Z"/><path class="cls-11" d="M332,307.23c26.95,0,27,.52,27-1.26,0-3.82.34-5.48-1.27-5.48-26.95,0-27-.51-27,1.27C330.74,305.58,330.39,307.23,332,307.23Z"/><path class="cls-12" d="M310.83,307.23c10.56,0,11.74.42,11.74-1.26,0-3.82.35-5.48-1.26-5.48-10.56,0-11.74-.42-11.74,1.27C309.57,305.58,309.22,307.23,310.83,307.23Z"/></g></g></svg>