<svg xmlns="http://www.w3.org/2000/svg" viewBox="0 0 236.69 43.41"><defs><style>.cls-1{fill:#3b5bdb;}</style></defs><g id="레이어_2" data-name="레이어 2"><g id="레이어_1-2" data-name="레이어 1"><path class="cls-1" d="M28.24,2.11V33.89h-7.1V21H7.1V33.89H0V2.11H7.1V14.7h14V2.11Z"/><path class="cls-1" d="M56.2,11,43.06,43.41H36.23l4.14-10.14L31.36,11H39l5,14.12L49,11Z"/><path class="cls-1" d="M56.75,22.46c0-6.94,4.91-12,11.89-12s11.9,5,11.9,12a15.27,15.27,0,0,1-.16,2.23H63.65a4.82,4.82,0,0,0,5,4.17c2,0,3.63-.7,4.21-1.79h7c-1.17,4.37-5.65,7.37-11.19,7.37C61.66,34.44,56.75,29.45,56.75,22.46Zm17-2.26A4.86,4.86,0,0,0,68.64,16c-2.73,0-4.45,1.48-5,4.21Z"/><path class="cls-1" d="M107.72,22.46c0,7-5.07,12-12.13,12s-12.13-5-12.13-12,5.07-12,12.13-12S107.72,15.52,107.72,22.46Zm-17.55,0c0,3.52,2.14,6.05,5.42,6.05S101,26,101,22.46s-2.14-6-5.42-6S90.17,19,90.17,22.46Z"/><path class="cls-1" d="M111.77,11h7v2.34a7.47,7.47,0,0,1,6.39-2.89c5.31,0,8.93,3.86,8.93,10.18V33.89H127.1v-12c0-3.47-1.4-5.38-4-5.38s-4.36,2.14-4.36,5.69V33.89h-7Z"/><path class="cls-1" d="M143.68,23.32a5.09,5.09,0,0,0,5.38,5c3.51,0,5.61-2.46,5.61-6.13v-20h7.1v20c0,7.61-5.07,12.52-12.71,12.52s-12.4-5-12.48-11.35Z"/><path class="cls-1" d="M174.45,4.25a4.26,4.26,0,0,1-8.51,0,4.26,4.26,0,0,1,8.51,0ZM173.67,34h-6.95V11h6.95Z"/><path class="cls-1" d="M178.89,11h6.94v2.34a7.5,7.5,0,0,1,6.4-2.89c5.3,0,8.93,3.86,8.93,10.18V33.89h-6.94v-12c0-3.47-1.41-5.38-4-5.38s-4.37,2.14-4.37,5.69V33.89h-6.94Z"/><path class="cls-1" d="M204.94,13.85V10.76a3.41,3.41,0,0,0,3.28-3.62h-2.81v-6h6.16v5C211.57,10.3,209.19,13.49,204.94,13.85Z"/><path class="cls-1" d="M236.3,17.9h-6.71c-.23-1.4-1.83-2.26-3.86-2.26s-3.63.74-3.63,1.76,1.52,1.67,5.42,2.3c6.75,1,9.17,3.23,9.17,7.17,0,4.68-4.91,7.57-10.73,7.57s-10.49-3-10.72-7.76H222c.23,1.48,2,2.45,4.13,2.45s3.86-.81,3.86-1.87-1.56-1.79-5.5-2.38c-5.46-.82-9-2.49-9-7.13,0-4.45,4.64-7.26,10.45-7.26S236,13.38,236.3,17.9Z"/></g></g></svg>